<?xml version="1.0" encoding="utf-8"?>
<!-- Generator: Adobe Illustrator 25.1.0, SVG Export Plug-In . SVG Version: 6.00 Build 0)  -->
<svg version="1.1" id="Layer_1" xmlns="http://www.w3.org/2000/svg" xmlns:xlink="http://www.w3.org/1999/xlink" x="0px" y="0px"
	 viewBox="0 0 50 50" style="enable-background:new 0 0 50 50;" xml:space="preserve">
<g>
	<path d="M48.2,18.2h-6.8c0-3.7-3-6.8-6.8-6.8c-1.2,0-2.3,0.3-3.4,0.9c-1.2-3.5-5-5.5-8.5-4.3c-2,0.7-3.6,2.3-4.3,4.3
		c-3.2-1.9-7.4-0.7-9.2,2.5c-0.6,1-0.9,2.2-0.9,3.4H1.6c-0.4,0-0.8,0.3-0.8,0.8c0,10.8,5.6,17.9,15.8,20.1v2.4
		c0,0.4,0.3,0.8,0.8,0.8h16.5c0.4,0,0.8-0.3,0.8-0.8v-2.4C43.9,36.5,49,29.4,49,19C48.9,18.6,48.6,18.2,48.2,18.2z M34.6,13
		c2.9,0,5.3,2.4,5.3,5.3h-9.4c0,0,0-0.1,0.1-0.1c0.1-0.2,0.2-0.4,0.3-0.6c0-0.1,0.1-0.1,0.1-0.2c0.1-0.3,0.2-0.5,0.3-0.8
		c0-0.1,0-0.1,0.1-0.2c0.1-0.2,0.1-0.5,0.2-0.7c0-0.1,0-0.2,0-0.2c0-0.3,0.1-0.6,0.1-0.9c0-0.2,0-0.3,0-0.5l0,0
		C32.5,13.3,33.6,13,34.6,13z M24.9,9.2c2.6,0,4.8,1.9,5.2,4.5c0,0.3,0.1,0.5,0.1,0.8c0,0.2,0,0.4,0,0.5s0,0.1,0,0.2
		c0,0.1,0,0.2-0.1,0.4c0,0.1,0,0.1-0.1,0.2c0,0.1-0.1,0.2-0.1,0.3c0,0.1-0.1,0.1-0.1,0.2s-0.1,0.2-0.1,0.3c0,0.1-0.1,0.1-0.1,0.2
		s-0.1,0.2-0.1,0.3c0,0.1-0.1,0.1-0.1,0.2c-0.1,0.1-0.1,0.2-0.2,0.3c0,0.1-0.1,0.1-0.1,0.2C29,17.9,29,18,28.9,18
		c-0.1,0.1-0.1,0.1-0.2,0.2l-0.1,0.1h-7.3l-0.1-0.1C21,18.1,21,18,20.9,17.9s-0.1-0.2-0.2-0.2c-0.1-0.1-0.1-0.1-0.2-0.2
		s-0.1-0.2-0.2-0.3c0-0.1-0.1-0.1-0.1-0.2c-0.1-0.1-0.1-0.2-0.1-0.3c0-0.1-0.1-0.1-0.1-0.2s-0.1-0.2-0.1-0.3c0-0.1-0.1-0.1-0.1-0.2
		c0-0.1-0.1-0.2-0.1-0.3s0-0.1-0.1-0.2c0-0.1,0-0.2-0.1-0.4c0-0.1,0-0.1,0-0.2c-0.3-2.9,1.8-5.5,4.7-5.8C24.5,9.2,24.7,9.2,24.9,9.2
		z M15.1,13c1.1,0,2.1,0.3,3,1l0,0c0,0.2,0,0.3,0,0.5c0,0.3,0,0.6,0.1,0.9c0,0.1,0,0.2,0,0.2c0,0.2,0.1,0.5,0.2,0.7
		c0,0.1,0,0.1,0.1,0.2c0.1,0.3,0.2,0.6,0.3,0.8c0,0.1,0.1,0.1,0.1,0.2c0.1,0.2,0.2,0.4,0.4,0.6c0,0,0,0.1,0.1,0.1H9.8
		C9.8,15.3,12.2,13,15.1,13z M33.7,37.8c-0.3,0.1-0.6,0.4-0.6,0.7v2.3h-15v-1.5h9c0.4,0,0.8-0.3,0.8-0.8s-0.3-0.8-0.8-0.8h-9.7
		c-8.5-1.7-13.6-7-14.8-15h22.3c0.4,0,0.8-0.3,0.8-0.8s-0.3-0.8-0.8-0.8H2.4c0-0.5-0.1-1-0.1-1.5h45.1
		C47.2,29.2,42.3,35.6,33.7,37.8z"/>
	<path d="M29.6,38c-0.3,0.3-0.3,0.8,0,1.1s0.8,0.3,1.1,0c0.3-0.3,0.3-0.8,0-1.1C30.4,37.7,29.9,37.7,29.6,38z"/>
	<path d="M29.9,22.5c0.3-0.3,0.3-0.8,0-1.1c-0.3-0.3-0.8-0.3-1.1,0c-0.3,0.3-0.3,0.8,0,1.1c0.1,0.1,0.3,0.2,0.5,0.2
		C29.6,22.7,29.8,22.7,29.9,22.5z"/>
	<path d="M36.1,21.2h-3c-0.4,0-0.8,0.3-0.8,0.8s0.3,0.8,0.8,0.8h3c0.4,0,0.8-0.3,0.8-0.8S36.6,21.2,36.1,21.2z"/>
	<path d="M34,16.1c0.7-0.2,1.5,0,2.1,0.5c0.3,0.3,0.8,0.2,1.1-0.1c0.3-0.3,0.2-0.8-0.1-1.1c-1-0.8-2.3-1.1-3.5-0.8
		c-0.4,0.1-0.7,0.5-0.6,0.9C33.2,15.9,33.6,16.2,34,16.1L34,16.1z"/>
	<path d="M15.1,14.5c-0.9,0-1.8,0.3-2.5,0.9c-0.3,0.3-0.4,0.7-0.1,1.1s0.7,0.4,1.1,0.1l0,0c0.4-0.4,0.9-0.6,1.5-0.6
		c0.4,0,0.8-0.3,0.8-0.8S15.5,14.5,15.1,14.5z"/>
	<path d="M22.3,16.7c0.1,0,0.3,0,0.4-0.1c0.4-0.2,0.5-0.7,0.3-1s-0.3-0.7-0.3-1.1c0-0.1,0-0.2,0-0.3c0.2-1.1,1.1-1.9,2.2-1.9
		c0.4,0,0.8-0.3,0.8-0.8c0-0.4-0.3-0.8-0.8-0.8c-1.9,0-3.4,1.4-3.7,3.2c0,0.2,0,0.4,0,0.6c0,0.7,0.2,1.3,0.5,1.9
		C21.8,16.6,22,16.7,22.3,16.7z"/>
</g>
</svg>
