<?xml version="1.0" encoding="utf-8"?>
<!-- Generator: Adobe Illustrator 25.1.0, SVG Export Plug-In . SVG Version: 6.00 Build 0)  -->
<svg version="1.1" id="Layer_1" xmlns="http://www.w3.org/2000/svg" xmlns:xlink="http://www.w3.org/1999/xlink" x="0px" y="0px"
	 viewBox="0 0 50 70" style="enable-background:new 0 0 50 70;" xml:space="preserve">
<g>
	<path d="M39.5,14C37.3,6,29,1.3,21,3.5C15.9,4.9,11.9,8.9,10.5,14C9.1,14.3,8,15.5,8,17v2c0,1.5,1.1,2.7,2.5,3
		c1.5,5,5.4,9,10.5,10.4V63c0,2.2,1.8,4,4,4s4-1.8,4-4V32.4C34.1,31,38,27,39.5,22c1.5-0.2,2.5-1.5,2.5-3v-2
		C42,15.5,40.9,14.3,39.5,14z M23,41.6l4,2v1.8l-4-2V41.6z M27,41.4l-4-2v-1.8l4,2V41.4z M27,63c0,1.1-0.9,2-2,2s-2-0.9-2-2V45.6
		l4,2V63z M27,33v4.4l-4-2V33H27z M40,19c0,0.6-0.4,1-1,1H27c-0.6,0-1,0.4-1,1s0.4,1,1,1h10.4c-2.2,6.8-9.5,10.6-16.4,8.4
		c-4.4-1.4-7.7-5.1-8.7-9.6c-0.1-0.5-0.5-0.8-1-0.8H11c-0.6,0-1-0.4-1-1v-2c0-0.6,0.4-1,1-1h11c0.6,0,1-0.4,1-1s-0.4-1-1-1h-9.4
		C14.8,7.2,22.2,3.4,29,5.6c4.4,1.4,7.7,5.1,8.7,9.6c0.1,0.5,0.5,0.8,1,0.8H39c0.6,0,1,0.4,1,1V19z"/>
	<path d="M34,14h-4c-0.6,0-1,0.4-1,1s0.4,1,1,1h4c0.6,0,1-0.4,1-1S34.6,14,34,14z"/>
	<path d="M21.3,20.3c-0.4,0.4-0.4,1,0,1.4c0.4,0.4,1,0.4,1.4,0c0.2-0.2,0.3-0.4,0.3-0.7c0-0.3-0.1-0.5-0.3-0.7
		C22.3,19.9,21.7,19.9,21.3,20.3z"/>
	<path d="M25,64c0.5,0,1-0.4,1-1l0,0c0-0.6-0.4-1-1-1s-1,0.4-1,1C24,63.5,24.4,64,25,64L25,64z"/>
</g>
</svg>
