<svg xmlns="http://www.w3.org/2000/svg" viewBox="0 0 50 50"><path d="M42.34,31a5.4,5.4,0,0,0,5.3-4.71h1.59a.79.79,0,0,0,0-1.58H47.64a5.33,5.33,0,0,0-10.59,0h-1.6V22.36A2.33,2.33,0,0,0,33.16,20H27.8a2.33,2.33,0,0,0-2.3,2.36v2.35H23.91a5.34,5.34,0,0,0-10.6,0H1.77a.79.79,0,0,0,0,1.58H13.31a5.34,5.34,0,0,0,10.6,0H25.5v2.35A2.33,2.33,0,0,0,27.8,31h5.36a2.33,2.33,0,0,0,2.29-2.36V26.29h1.6A5.4,5.4,0,0,0,42.34,31ZM18.61,29.43a3.93,3.93,0,1,1,3.83-3.93,3.88,3.88,0,0,1-3.83,3.93Zm14.55,0H27.8a.77.77,0,0,1-.77-.79V22.36a.77.77,0,0,1,.77-.79h5.36a.77.77,0,0,1,.76.79v6.28A.77.77,0,0,1,33.16,29.43Zm9.18-7.86a3.93,3.93,0,1,1-3.82,3.93A3.88,3.88,0,0,1,42.34,21.57Z"/><path d="M42.75,25.5a.75.75,0,0,0,0,1.5A2.25,2.25,0,0,0,45,24.75a.75.75,0,0,0-1.5,0A.76.76,0,0,1,42.75,25.5Z"/><path d="M20.25,24a.76.76,0,0,0-.75.75.76.76,0,0,1-.75.75.75.75,0,0,0,0,1.5A2.25,2.25,0,0,0,21,24.75.76.76,0,0,0,20.25,24Z"/><path d="M31.7,24.5a.78.78,0,0,0-.8.75V26H29.3a.75.75,0,1,0,0,1.5h2.4a.78.78,0,0,0,.8-.75v-1.5A.78.78,0,0,0,31.7,24.5Z"/><path d="M15.25,37a.76.76,0,0,0-.75.75.76.76,0,0,1-.75.75.75.75,0,0,0,0,1.5A2.25,2.25,0,0,0,16,37.75.76.76,0,0,0,15.25,37Z"/><path d="M31.26,40.63V38.28h1.55v3.93a.81.81,0,0,0,.43.71.78.78,0,0,0,.82-.08l9-4.56h2.14a.79.79,0,0,0,0-1.57H43.08l-9.15-4.63a.75.75,0,0,0-.75,0,.79.79,0,0,0-.37.67v3.92H31.26V34.36A2.35,2.35,0,0,0,28.93,32H23.5a2.35,2.35,0,0,0-2.33,2.36v2.35H19.56a5.42,5.42,0,0,0-10.74,0h-7a.79.79,0,0,0,0,1.57h7a5.42,5.42,0,0,0,10.74,0h1.61v2.35A2.34,2.34,0,0,0,23.5,43h5.43A2.34,2.34,0,0,0,31.26,40.63Zm9.9-3.14-6.8,3.44V34.06Zm-27,3.92a3.92,3.92,0,1,1,3.88-3.92,3.9,3.9,0,0,1-3.88,3.92Zm9.31,0a.78.78,0,0,1-.78-.78V34.36a.78.78,0,0,1,.78-.79h5.43a.78.78,0,0,1,.78.79v6.27a.78.78,0,0,1-.78.78Z"/><path d="M27.5,38.75v-1.5a.8.8,0,0,0-1.6,0V38H24.3a.75.75,0,1,0,0,1.5h2.4A.78.78,0,0,0,27.5,38.75Z"/><path d="M15.25,12a.76.76,0,0,0-.75.75.76.76,0,0,1-.75.75.75.75,0,0,0,0,1.5A2.25,2.25,0,0,0,16,12.75.76.76,0,0,0,15.25,12Z"/><path d="M38.9,13H37.3a.75.75,0,1,0,0,1.5h2.4a.78.78,0,0,0,.8-.75v-1.5a.8.8,0,0,0-1.6,0Z"/><path d="M34,38a1,1,0,0,0,.62.92,1,1,0,0,0,1.1-.21,1,1,0,0,0,0-1.42,1,1,0,0,0-1.1-.21A1,1,0,0,0,34,38Z"/><path d="M22.22,14.75a3.74,3.74,0,0,0,2.4,3.46,4,4,0,0,0,4.23-.81,6.87,6.87,0,0,0,1.87-4.14h2.37V15.5a2.29,2.29,0,0,0,2.32,2.25h5.43a2.29,2.29,0,0,0,2.33-2.25V13.26h1.55a.75.75,0,1,0,0-1.5H43.17V9.51a2.29,2.29,0,0,0-2.33-2.25H35.41a2.29,2.29,0,0,0-2.32,2.25v2.25H30.72a6.87,6.87,0,0,0-1.87-4.15,4,4,0,0,0-4.94-.46,3.67,3.67,0,0,0-1.35,4.61h-3.5a5.36,5.36,0,0,0-5.37-4.49,5.36,5.36,0,0,0-5.37,4.49h-7a.75.75,0,1,0,0,1.5h7a5.37,5.37,0,0,0,5.37,4.49,5.37,5.37,0,0,0,5.37-4.49h3.5a3.68,3.68,0,0,0-.34,1.49Zm13.19-6h5.43a.77.77,0,0,1,.78.75v6a.76.76,0,0,1-.78.75H35.41a.76.76,0,0,1-.77-.75v-6A.77.77,0,0,1,35.41,8.76ZM24.46,8.67a2.38,2.38,0,0,1,3.29,0,5.45,5.45,0,0,1,1.46,3.84,5.43,5.43,0,0,1-1.46,3.83,2.38,2.38,0,0,1-3.29,0,2.24,2.24,0,0,1-.14-3,.67.67,0,0,0,.13-.21,1.71,1.71,0,0,0,0-1.18.57.57,0,0,0-.13-.21,2.25,2.25,0,0,1,.14-3ZM13.69,16.25a3.81,3.81,0,0,1-3.88-3.74,3.88,3.88,0,0,1,7.76,0,3.81,3.81,0,0,1-3.88,3.74Z"/><path d="M26.68,13.2a2.75,2.75,0,0,1-.91,2.1.59.59,0,0,0,0,1,1.08,1.08,0,0,0,1.28,0A3.93,3.93,0,0,0,28.5,13.2a.94.94,0,0,0-1.82,0Z"/></svg>