<svg xmlns="http://www.w3.org/2000/svg" viewBox="0 0 50 50"><defs><style>.a{fill:none;}</style></defs><path d="M25.1,19.62C12.66,19.62,7.43,22.9,6.44,31.3a.79.79,0,0,0,.68.88h.1A.78.78,0,0,0,8,31.49c.89-7.51,5.52-10.3,17.11-10.3a.79.79,0,0,0,0-1.57Z"/><path d="M39.23,33.75H36.09a.79.79,0,1,0,0,1.57h3.14a.79.79,0,0,0,0-1.57Z"/><path d="M41.81,34a.78.78,0,1,0,1.34.56.79.79,0,0,0-.23-.56.82.82,0,0,0-1.11,0Z"/><path d="M28.47,20.64a.75.75,0,0,0-.23.55.79.79,0,1,0,.23-.55Z"/><path d="M21.79,29.66a.79.79,0,0,0,1.12,1.12.79.79,0,1,0-1.12-1.12Z"/><path d="M18.26,24.56a.88.88,0,0,0-.23.56.85.85,0,0,0,.23.55.8.8,0,0,0,1.12,0,.79.79,0,0,0-1.12-1.11Z"/><path d="M14.34,30.05a.78.78,0,0,0,1.11,1.11.79.79,0,0,0,0-1.11A.82.82,0,0,0,14.34,30.05Z"/><path d="M18.26,34a.88.88,0,0,0-.23.56.79.79,0,0,0,.64.76.8.8,0,0,0,.88-.47.79.79,0,0,0-.3-.95A.78.78,0,0,0,18.26,34Z"/><path d="M10.41,34a.88.88,0,0,0-.23.56.79.79,0,0,0,.64.76.8.8,0,0,0,.88-.47A.79.79,0,0,0,10.41,34Z"/><path d="M14.67,25.67a.8.8,0,0,0-.86-1.3.8.8,0,0,0-.48.89.8.8,0,0,0,1.34.41Z"/><path d="M26.11,34a.8.8,0,0,0,0,1.11.78.78,0,0,0,1.11,0,.8.8,0,0,0,0-1.11A.79.79,0,0,0,26.11,34Z"/><path d="M31.6,34a.8.8,0,0,0,0,1.11A.78.78,0,0,0,32.71,34a.79.79,0,0,0-1.11,0Z"/><path d="M50.22,25.9a3.94,3.94,0,0,0-3.14-3.84V18.84a.8.8,0,0,0-.34-.65A.82.82,0,0,0,46,18.1l-3,1.14a4.72,4.72,0,0,0-4.55-3.54h-.18a4.29,4.29,0,0,0-7.6-1.39,4.22,4.22,0,0,0-3.62.55l-1.23-2.64-.06-.08a.6.6,0,0,0-.09-.13l-.12-.1s-.05-.05-.08-.06h-.05a.44.44,0,0,0-.15,0l-.15,0H25l-.15,0h-.05l-.08.06a.61.61,0,0,0-.23.22l-.06.07-1.61,3.1a4.3,4.3,0,0,0-3.48-1.95,4.24,4.24,0,0,0-3.56,1.76,4.46,4.46,0,0,0-1.25-.19,4.33,4.33,0,0,0-3.88,2.48L7.4,15.78a.78.78,0,0,0-1.14.7v5.85A3.71,3.71,0,0,0,4.69,22,3.92,3.92,0,0,0,.77,25.9a3.85,3.85,0,0,0,.47,1.85A3.84,3.84,0,0,0,0,30.61a3.93,3.93,0,0,0,3.14,3.85v3.22a.78.78,0,0,0,.79.78H46.29a.79.79,0,0,0,.79-.78V34.46a3.91,3.91,0,0,0,2.34-6.2A4,4,0,0,0,50.22,25.9Zm-4.71-3.84-.08,0-.15,0L45,22.2l-.14.06c-.09,0-.18.08-.27.12l-.14.07-.24.14-.15.1-.1.07H43.8a12.92,12.92,0,0,0-1.46-1.59l.3-.11h0L45.51,20ZM25.06,14.33l1,2.16H23.93ZM41.51,19.8l-.13.05-.47.18a16.52,16.52,0,0,0-4.35-2.11.24.24,0,0,1,.08-.06l.06-.05a3.22,3.22,0,0,1,1.74-.54A3.15,3.15,0,0,1,41.51,19.8ZM30.63,16a.79.79,0,0,0,1.05-.35,2.73,2.73,0,0,1,5,.38,4.7,4.7,0,0,0-1.91,1.39,35.85,35.85,0,0,0-7-.88l-.1-.21h0A2.65,2.65,0,0,1,30.63,16Zm-14.91.78a.78.78,0,0,0,1-.35,2.72,2.72,0,0,1,2.52-1.51,2.68,2.68,0,0,1,2.42,1.65,29,29,0,0,0-9.22,1.76L12,18.09a2.73,2.73,0,0,1,1.58-1.44,2.77,2.77,0,0,1,2.13.13Zm-7.89,1,2.85,1.43a2,2,0,0,0-.25.14l-.42.24a13.31,13.31,0,0,0-2.18,1.63ZM3.17,32.85a2.35,2.35,0,0,1-1.62-2.24,2.31,2.31,0,0,1,1.16-2,.79.79,0,0,0,.37-.55.76.76,0,0,0-.18-.63,2.35,2.35,0,0,1,1.79-3.87,2.29,2.29,0,0,1,1,.23A17.48,17.48,0,0,0,3.26,31.6c0,.34-.06.69-.08,1C3.18,32.71,3.17,32.78,3.17,32.85Zm42.34,4H4.69V34.54c0-.26,0-.51,0-.76h0a22.78,22.78,0,0,1,.73-5.45c0-.06,0-.11,0-.17.1-.34.2-.67.32-1,0-.05,0-.09,0-.13.11-.31.24-.6.37-.88s.15-.32.23-.48.1-.21.16-.31c2.47-4.58,7.47-6.83,15.59-7.24l.36,0c.82,0,1.68-.06,2.56-.06l1.36,0h.09c1.3,0,2.52.1,3.65.21C37.43,19,41.83,21.47,44,26.08l.09.19c.05.12.1.26.16.39s.15.4.23.6.06.2.1.31c.1.31.2.63.28.95v0a23,23,0,0,1,.66,5.22h0c0,.25,0,.5,0,.75Zm2.32-8a2.34,2.34,0,0,1,.82,1.76A2.38,2.38,0,0,1,47,32.85a2.64,2.64,0,0,1,0-.28c0-.31,0-.62-.07-.93a17.92,17.92,0,0,0-2.21-7.49h0a2.3,2.3,0,0,1,1.54-.59,2.34,2.34,0,0,1,1.54,4.12.77.77,0,0,0-.27.59.8.8,0,0,0,.27.59Z"/></svg>