<?xml version="1.0" encoding="utf-8"?>
<!-- Generator: Adobe Illustrator 25.1.0, SVG Export Plug-In . SVG Version: 6.00 Build 0)  -->
<svg version="1.1" id="Layer_1" xmlns="http://www.w3.org/2000/svg" xmlns:xlink="http://www.w3.org/1999/xlink" x="0px" y="0px"
	 viewBox="0 0 50 50" style="enable-background:new 0 0 50 50;" xml:space="preserve">
<g>
	<path d="M48.7,21.9h-0.8c-0.4-5-4.8-8.7-9.7-8.3c-4.4,0.4-7.9,3.9-8.3,8.3h-0.8c-0.4,0-0.8,0.3-0.8,0.8V25c0,3.4,1.6,6.6,4.4,8.6
		l-0.6,2.5c-0.1,0.4,0.1,0.8,0.6,0.9c0.1,0,0.1,0,0.2,0H45c0.4,0,0.8-0.3,0.8-0.8c0-0.1,0-0.1,0-0.2L45,33.5c2.8-2,4.4-5.2,4.4-8.6
		v-2.3C49.4,22.3,49.1,21.9,48.7,21.9z M38.9,15.1c3.9,0,7.1,2.9,7.5,6.8h-15C31.8,18.1,35,15.1,38.9,15.1z M47.9,24.9
		c0,3.1-1.6,6-4.2,7.6c-0.3,0.2-0.4,0.5-0.3,0.8l0.5,2.1H33.8l0.4-1.5h3.2c0.4,0,0.8-0.3,0.8-0.8c0-0.4-0.3-0.8-0.8-0.8h-3.5
		c-2.5-1.7-4.1-4.5-4.1-7.5v-1.5h18.1V24.9z"/>
	<path d="M39.9,32.7c-0.3,0.3-0.3,0.8,0,1.1s0.8,0.3,1.1,0s0.3-0.8,0-1.1C40.6,32.4,40.2,32.4,39.9,32.7z"/>
	<path d="M26.1,20.4H2c-0.4,0-0.8,0.3-0.8,0.8v9c0,2.5,2,4.5,4.5,4.5h1.5v1.5C7.3,36.6,7.6,37,8,37h12.1c0.4,0,0.8-0.3,0.8-0.8v-1.5
		h1.5c2.5,0,4.5-2,4.5-4.5v-9C26.8,20.8,26.5,20.4,26.1,20.4z M19.3,35.5H8.8v-0.8h10.5V35.5z M25.3,30.2c0,1.7-1.3,3-3,3H5.8
		c-1.7,0-3-1.3-3-3v-5.3h9c0.4,0,0.8-0.3,0.8-0.8s-0.3-0.8-0.8-0.8h-9v-1.5h22.6v8.4H25.3z"/>
	<path d="M36.4,17.6c-0.3-0.3-0.8-0.3-1.1,0c-0.1,0.1-0.2,0.3-0.2,0.5c0,0.4,0.3,0.8,0.8,0.7c0.4,0,0.8-0.3,0.7-0.8
		C36.6,18,36.6,17.8,36.4,17.6z"/>
	<path d="M38.7,16.1c-0.3-0.3-0.8-0.3-1.1,0c-0.3,0.3-0.3,0.8,0,1.1c0.3,0.3,0.8,0.3,1.1,0C39,16.9,39,16.4,38.7,16.1z"/>
	<path d="M36.9,19.9c-0.1,0.1-0.2,0.3-0.2,0.5s0.1,0.4,0.2,0.5c0.3,0.3,0.8,0.3,1.1,0s0.3-0.8,0-1.1C37.6,19.6,37.2,19.6,36.9,19.9z
		"/>
	<path d="M33.8,19.9c-0.1,0.1-0.2,0.3-0.2,0.5s0.1,0.4,0.2,0.5c0.3,0.3,0.8,0.3,1.1,0s0.3-0.8,0-1.1C34.6,19.6,34.1,19.6,33.8,19.9z
		"/>
	<path d="M39.1,18.4c-0.3,0.3-0.3,0.8,0,1.1c0.3,0.3,0.8,0.3,1.1,0s0.3-0.8,0-1.1C39.9,18.1,39.4,18.1,39.1,18.4z"/>
	<path d="M14.8,24.9h0.8c0.4,0,0.8-0.3,0.8-0.8s-0.3-0.8-0.8-0.8h-0.8c-0.4,0-0.8,0.3-0.8,0.8S14.4,24.9,14.8,24.9z"/>
	<path d="M9.5,15.9c0.4,0,0.8-0.3,0.8-0.8v-1.5c0-0.4-0.3-0.8-0.8-0.8c-0.4,0-0.8,0.3-0.8,0.8v1.5C8.8,15.6,9.1,15.9,9.5,15.9z"/>
	<path d="M14,18.2c0.4,0,0.8-0.3,0.8-0.8v-3c0-0.4-0.3-0.8-0.8-0.8c-0.4,0-0.8,0.3-0.8,0.8v3C13.3,17.8,13.6,18.2,14,18.2z"/>
	<path d="M18.6,15.9c0.4,0,0.8-0.3,0.8-0.8v-1.5c0-0.4-0.3-0.8-0.8-0.8c-0.4,0-0.8,0.3-0.8,0.8v1.5C17.8,15.6,18.1,15.9,18.6,15.9z"
		/>
	<path d="M14,12.9c0.2,0,0.4-0.1,0.5-0.2c0.3-0.3,0.3-0.8,0-1.1s-0.8-0.3-1.1,0s-0.3,0.8,0,1.1C13.7,12.8,13.8,12.9,14,12.9z"/>
	<path d="M9.5,18.2c0.4,0,0.7-0.3,0.7-0.8c0-0.4-0.3-0.7-0.8-0.7c-0.4,0-0.7,0.3-0.7,0.8c0,0.2,0.1,0.4,0.2,0.5
		C9.1,18.1,9.3,18.2,9.5,18.2z"/>
	<path d="M18.6,18.2c0.4,0,0.7-0.3,0.7-0.8c0-0.4-0.3-0.7-0.8-0.7c-0.4,0-0.7,0.3-0.7,0.8c0,0.2,0.1,0.4,0.2,0.5
		C18.2,18.1,18.4,18.2,18.6,18.2z"/>
</g>
</svg>
