<svg xmlns="http://www.w3.org/2000/svg" viewBox="0 0 50 50"><defs><style>.a{fill:none;}</style></defs><path d="M35.23,34a.73.73,0,0,0-.73-.73H27.94a.73.73,0,1,0,0,1.46H34.5A.73.73,0,0,0,35.23,34Z"/><path d="M27.94,23.83a.72.72,0,0,0-.73-.73H9.84a.73.73,0,0,0,0,1.46H27.21A.73.73,0,0,0,27.94,23.83Z"/><path d="M14.83,34a.73.73,0,0,0-.73-.73H6.81a.75.75,0,0,1-.73-.73.73.73,0,0,0-1.46,0,2.23,2.23,0,0,0,2.19,2.19H14.1A.73.73,0,0,0,14.83,34Z"/><path d="M26.48,34a.73.73,0,0,0-.72-.73H19.93a.73.73,0,1,0,0,1.46h5.83A.73.73,0,0,0,26.48,34Z"/><path d="M17.53,33.52A.73.73,0,0,0,17,33.3a.78.78,0,0,0-.52.21.75.75,0,0,0,0,1,.77.77,0,0,0,.71.19.73.73,0,0,0,.33-1.22Z"/><path d="M30.65,23.31a.75.75,0,0,0-1,0,.73.73,0,0,0,1,1A.73.73,0,0,0,30.65,23.31Z"/><path d="M40.85,29.14A.73.73,0,0,0,40,29a.72.72,0,0,0-.34.81.74.74,0,0,0,.7.55.79.79,0,0,0,.52-.22.76.76,0,0,0,0-1Z"/><path d="M44,22.37a.78.78,0,0,0,.21.52.74.74,0,0,0,1.2-.8.73.73,0,0,0-.68-.45.72.72,0,0,0-.73.73Z"/><path d="M41.79,25.28a.72.72,0,0,0,.73.73A.71.71,0,0,0,43,25.8a.76.76,0,0,0,0-1,.71.71,0,0,0-.51-.21.68.68,0,0,0-.52.21A.66.66,0,0,0,41.79,25.28Z"/><path d="M38.66,22.58a.76.76,0,0,0-.52-.21.73.73,0,0,0,0,1.46.76.76,0,0,0,.52-.21.77.77,0,0,0,0-1Z"/><path d="M41.27,16.75a.73.73,0,1,0,1,1,.77.77,0,0,0,0-1,.74.74,0,0,0-.51-.21.76.76,0,0,0-.52.21Z"/><path d="M40.39,26.76a.72.72,0,0,0-.06.29.73.73,0,0,0,.44.67,2.93,2.93,0,0,1,1.75,2.67.73.73,0,0,0,1.45,0,4.38,4.38,0,0,0-2.62-4A.73.73,0,0,0,40.39,26.76Z"/><path d="M33.77,16.54a.72.72,0,0,0,1.39.27A.72.72,0,0,0,34,16a.78.78,0,0,0-.21.52Z"/><path d="M31.37,17.48a.73.73,0,0,0-1.24.52.73.73,0,0,0,1.24.52.77.77,0,0,0,0-1Z"/><path d="M25.76,16.54a.73.73,0,0,0,.21.52.75.75,0,0,0,.51.21.73.73,0,1,0,0-1.46A.75.75,0,0,0,26,16a.73.73,0,0,0-.21.52Z"/><path d="M23.36,17.48a.74.74,0,0,0-1,1,.78.78,0,0,0,.52.21.74.74,0,0,0,.51-.21.76.76,0,0,0,0-1Z"/><path d="M16.07,17.48a.73.73,0,0,0-1,1,.73.73,0,0,0,1,0A.77.77,0,0,0,16.07,17.48Z"/><path d="M13.16,16.33a.77.77,0,0,0,0-1,.75.75,0,0,0-1,0,.78.78,0,0,0-.21.52.76.76,0,0,0,.21.52.75.75,0,0,0,1,0Z"/><path d="M5.14,20.4a.72.72,0,0,0-1,0,.69.69,0,0,0-.21.51.73.73,0,0,0,1.36.36A.73.73,0,0,0,5.14,20.4Z"/><path d="M10.24,17.48a.72.72,0,0,0-.88-.11.71.71,0,0,0-.33.81.74.74,0,0,0,.7.55.75.75,0,0,0,.51-.21A.77.77,0,0,0,10.24,17.48Z"/><path d="M6.6,16.75a.74.74,0,0,0-1,1,.78.78,0,0,0,.52.21.76.76,0,0,0,.52-.21.77.77,0,0,0,0-1Z"/><path d="M18.47,15.81a.73.73,0,0,0,1.36.36.74.74,0,0,0-.11-.88.78.78,0,0,0-.52-.21.76.76,0,0,0-.52.21.73.73,0,0,0-.21.52Z"/><path d="M38.87,36.83a2.77,2.77,0,0,0,.73-2.07,4.36,4.36,0,0,0,1.91-.45,4,4,0,0,0,6.83-2.71A4,4,0,0,0,46,27.86a4.3,4.3,0,0,0,.86-2.58h0A3.62,3.62,0,0,0,46.16,19a4.69,4.69,0,0,0-6.69-4.24,2.39,2.39,0,0,0-.6-1.06c-.87-.87-2.24-.86-3.82-.84H6.81A5.1,5.1,0,0,0,1.71,18V32.57a5.1,5.1,0,0,0,5.1,5.1H35.05C36.63,37.69,38,37.7,38.87,36.83ZM44.7,19.09c0,.13,0,.25,0,.37a.73.73,0,0,0,.55.8,2.16,2.16,0,0,1,.54,4,.74.74,0,0,0-.37.72l0,.12c0,.06,0,.12,0,.18a2.85,2.85,0,0,1-1.23,2.35A.73.73,0,0,0,44.56,29a2.54,2.54,0,1,1-1.86,4.48.71.71,0,0,0,0-.8h0a.76.76,0,0,0-.53-.3.72.72,0,0,0-.58.2,2.89,2.89,0,0,1-2,.77l-.38,0c-.28-1-.68-2.3-1.18-3.72a2.2,2.2,0,0,0,1.56-2.09v-.73a2.18,2.18,0,0,0-2.19-2.18H36.29L38,20.18h2.36a.73.73,0,0,1,.73.73v.73a.73.73,0,0,1-.73.73.73.73,0,1,0,0,1.46,2.19,2.19,0,0,0,2.19-2.19v-.73a2.19,2.19,0,0,0-2.19-2.18h-1.8l.84-2.19a3.27,3.27,0,0,1,5.33,2.55ZM36.64,26h.77a.73.73,0,0,1,.73.73v.73a.73.73,0,0,1-.61.72C37.26,27.46,37,26.73,36.64,26ZM6.81,14.35H35.06c1.21,0,2.34,0,2.78.42a1.32,1.32,0,0,1,.3.91l-.06.16h0l-2.85,7.41a6.23,6.23,0,0,0-2.88-2.92l-.08,0L32,20.23a1.9,1.9,0,0,0-.4-.05H9.73l-.45,0-.13,0-.33.08-.13.05-.38.16-.06,0-.42.25-.12.08a3.09,3.09,0,0,0-.31.23l-.13.1-.34.29-.07.06c-.13.13-.27.26-.4.4l-.09.1-.31.34L6,22.54l-.31.38a.61.61,0,0,1-.07.1c-.12.16-.25.32-.37.5l0,.08c-.11.14-.2.29-.3.43l-.09.15q-.13.2-.27.42l-.07.11-.33.54,0,0-.28.5-.07.14-.22.41-.07.13c-.09.17-.18.34-.26.51V18A3.66,3.66,0,0,1,6.81,14.35ZM35.06,36.21H6.81a3.64,3.64,0,0,1-3.64-3.64v-2a3.65,3.65,0,0,1,.14-.35,2.77,2.77,0,0,1,.1-.26c.06-.14.12-.29.19-.44s.07-.18.12-.27.13-.3.2-.45l.13-.28c.07-.16.15-.32.23-.48l.14-.27c.07-.15.16-.31.24-.47s.09-.19.14-.28.17-.31.25-.46l.16-.29.26-.43.17-.29.26-.41.18-.28.26-.38.2-.28c.08-.12.17-.23.26-.35l.2-.25.27-.31A2.11,2.11,0,0,1,7.46,23l.27-.27.19-.2.27-.22.2-.16L8.66,22l.18-.11a1.88,1.88,0,0,1,.3-.12.94.94,0,0,1,.15-.06,1.62,1.62,0,0,1,.44-.07H31.59l.14,0c.46.09,1.47.68,2.95,3.65.09.17.17.35.26.52L35,26c.14.3.28.61.41.93l.08.18c.06.13.11.27.17.41s.11.27.17.41l.15.37.28.75c.77,2.08,1.36,4,1.65,5.05v0c.07.24.13.47.19.7a1.29,1.29,0,0,1-.3.94C37.4,36.23,36.27,36.23,35.06,36.21Z"/></svg>