<?xml version="1.0" encoding="utf-8"?>
<!-- Generator: Adobe Illustrator 25.1.0, SVG Export Plug-In . SVG Version: 6.00 Build 0)  -->
<svg version="1.1" id="Layer_1" xmlns="http://www.w3.org/2000/svg" xmlns:xlink="http://www.w3.org/1999/xlink" x="0px" y="0px"
	 viewBox="0 0 63.1 63.1" style="enable-background:new 0 0 63.1 63.1;" xml:space="preserve">
<g>
	<path d="M61.9,6.8H50.3c-0.2,0-0.3,0-0.4,0.1l-1.7,0.9H36.6c-0.4-1.2-1.5-1.9-2.7-1.9h-9.7c-0.5,0-1,0.4-1,1s0.4,1,1,1h9.7
		c0.5,0,1,0.4,1,1v1H24.1c-0.5,0-1,0.4-1,1s0.4,1,1,1h10.7v1c0,0.5-0.4,1-1,1h-9.7c-0.5,0-1,0.4-1,1c0,0.5,0.4,1,1,1h9.7
		c1.2,0,2.3-0.8,2.7-1.9h11.6l1.7,0.9c0.1,0.1,0.3,0.1,0.4,0.1h11.6c0.5,0,1-0.4,1-1V7.7C62.9,7.2,62.5,6.8,61.9,6.8z M61,12.6H50.5
		l-1.7-0.9c-0.1-0.1-0.3-0.1-0.4-0.1H36.7V9.7h11.6c0.2,0,0.3,0,0.4-0.1l1.7-0.9H61V12.6z"/>
	<path d="M59,11.6c0.5,0,1-0.4,1-1c0-0.3-0.1-0.5-0.3-0.7c-0.4-0.4-1-0.4-1.4,0c-0.2,0.2-0.3,0.4-0.3,0.7
		C58.1,11.2,58.5,11.6,59,11.6z"/>
	<path d="M52.2,25.2h-2c-0.5-4.8-4.8-8.2-9.6-7.7c-1.4,0.2-2.7,0.6-3.9,1.4c-2.9-2-6.8-2-9.7,0c-4-2.7-9.4-1.6-12.1,2.4
		c-0.2,0.3-0.4,0.6-0.5,0.9v-9.1c0-2.4-2-4.4-4.4-4.4H3.8c-1.6,0-2.9,1.3-2.9,2.9s1.3,2.9,2.9,2.9c6.7,0,6.8,11.5,6.8,11.6
		c0,0,0,0,0,0.1c0,0,0,0,0,0.1l0.8,6.8l2.2,17.5l0.8,6.8c0.1,0.5,0.5,0.9,1,0.9h33c0.5,0,0.9-0.4,1-0.8l0.8-6.8l2.2-17.5l0.8-6.8
		c0.1-0.5-0.3-1-0.8-1.1C52.3,25.2,52.3,25.2,52.2,25.2z M50.5,32H13.2l-0.6-4.8h38.5L50.5,32z M23.5,23.7c-0.1,0.2-0.1,0.4-0.2,0.6
		c0,0.1,0,0.1,0,0.2c0,0.2-0.1,0.5-0.1,0.7h-3.8c0.4-1.2,1.5-1.9,2.7-1.9C22.7,23.3,23.1,23.4,23.5,23.7
		C23.5,23.6,23.5,23.7,23.5,23.7z M33.2,23.7c-0.1,0.2-0.1,0.4-0.2,0.6v0.1l0,0c0,0.2-0.1,0.5-0.1,0.8h-3.8c0.4-1.2,1.5-1.9,2.7-1.9
		C32.4,23.3,32.8,23.4,33.2,23.7C33.2,23.6,33.2,23.7,33.2,23.7L33.2,23.7z M38.8,25.2c0.5-1.5,2.2-2.3,3.7-1.8
		c0.8,0.3,1.5,0.9,1.8,1.8H38.8z M48.3,25.2h-2c-0.5-2.6-3.1-4.3-5.7-3.8c-1.9,0.4-3.4,1.9-3.8,3.8h-2l0,0c0-0.1,0-0.3,0.1-0.4l0,0
		c0-0.1,0.1-0.2,0.1-0.3c0-0.1,0.1-0.2,0.1-0.3c0-0.1,0.1-0.2,0.1-0.4c0-0.1,0.1-0.3,0.2-0.4c0-0.1,0.1-0.2,0.1-0.3
		c0.1-0.1,0.1-0.2,0.2-0.4c0-0.1,0.1-0.2,0.1-0.2c0.1-0.1,0.2-0.3,0.3-0.4c0-0.1,0.1-0.1,0.1-0.2c0.1-0.2,0.3-0.3,0.5-0.5l0.1-0.1
		c0.1-0.1,0.3-0.3,0.4-0.4c2.9-2.4,7.2-2,9.5,0.9C47.6,22.8,48.1,24,48.3,25.2z M35.2,20.2c-0.1,0.1-0.2,0.2-0.2,0.3l-0.1,0.1
		c-0.3,0.4-0.6,0.8-0.8,1.2c-0.7-0.3-1.4-0.5-2.1-0.5c-2.3,0-4.3,1.6-4.8,3.9h-2l0,0c0-0.1,0-0.3,0.1-0.4c0,0,0,0,0-0.1
		s0.1-0.2,0.1-0.3c0-0.1,0.1-0.2,0.1-0.3c0-0.1,0.1-0.3,0.1-0.4c0.1-0.1,0.1-0.3,0.2-0.4c0-0.1,0.1-0.2,0.1-0.3
		c0.1-0.1,0.1-0.2,0.2-0.4c0-0.1,0.1-0.2,0.2-0.2c0.1-0.1,0.2-0.3,0.3-0.4c0-0.1,0.1-0.1,0.1-0.2c0.1-0.2,0.3-0.3,0.5-0.5l0.1-0.1
		c0.1-0.1,0.3-0.3,0.4-0.4C29.7,19.2,32.7,18.9,35.2,20.2L35.2,20.2z M22.2,19.4c1.2,0,2.3,0.3,3.3,0.9c-0.1,0.1-0.2,0.2-0.2,0.3
		l-0.1,0.1c-0.3,0.4-0.6,0.8-0.8,1.2c-0.7-0.3-1.4-0.5-2.1-0.5c-2.3,0-4.3,1.6-4.8,3.9h-2C15.9,21.9,18.8,19.4,22.2,19.4z M3.8,12.6
		c-0.5,0-1-0.4-1-1s0.4-1,1-1h6.3c1.3,0,2.4,1.1,2.4,2.4v12.1l0,0C12.3,22.1,11.1,12.6,3.8,12.6z M47.5,56.2H16.3l-0.6-4.8h32.5
		L47.5,56.2z M48.4,49.5h-33l-1.5-11.6h5.3c0.5,0,1-0.4,1-1s-0.4-1-1-1h-5.6L13.4,34h36.8L48.4,49.5z"/>
	<path d="M23.2,37.8c0.5,0,1-0.4,1-1s-0.4-1-1-1c-0.5,0-1,0.4-1,1c0,0.3,0.1,0.5,0.3,0.7C22.7,37.7,22.9,37.8,23.2,37.8z"/>
	<path d="M39.6,47.5h3.9c0.5,0,1-0.4,1-1s-0.4-1-1-1h-3.9c-0.5,0-1,0.4-1,1S39.1,47.5,39.6,47.5z"/>
	<path d="M46.4,47.5c0.5,0,1-0.4,1-1l0,0c0-0.3-0.1-0.5-0.3-0.7c-0.4-0.4-1-0.4-1.4,0c-0.2,0.2-0.3,0.4-0.3,0.7
		C45.5,47.1,45.9,47.5,46.4,47.5L46.4,47.5z"/>
	<path d="M31.9,48.5c3.7,0,6.8-3,6.8-6.8s-3-6.8-6.8-6.8s-6.8,3-6.8,6.8C25.1,45.4,28.1,48.5,31.9,48.5z M31.9,36.8
		c2.7,0,4.8,2.2,4.8,4.8s-2.2,4.8-4.8,4.8s-4.9-2-4.9-4.7S29.2,36.8,31.9,36.8z"/>
	<path d="M31.9,44.6c0.5,0,1-0.4,1-1s-0.4-1-1-1c-0.5,0-1-0.4-1-1s0.4-1,1-1c0.5,0,1-0.4,1-1c0-0.5-0.4-1-1-1
		c-1.6,0-2.9,1.3-2.9,2.9C29,43.3,30.3,44.6,31.9,44.6z"/>
</g>
</svg>
