<?xml version="1.0" encoding="utf-8"?>
<!-- Generator: Adobe Illustrator 25.1.0, SVG Export Plug-In . SVG Version: 6.00 Build 0)  -->
<svg version="1.1" id="Layer_1" xmlns="http://www.w3.org/2000/svg" xmlns:xlink="http://www.w3.org/1999/xlink" x="0px" y="0px"
	 viewBox="0 0 50 50" style="enable-background:new 0 0 50 50;" xml:space="preserve">
<desc>Created with Sketch.</desc>
<g id="icon-pizza">
	<g id="noun_Pizza_2835211">
		<path id="Shape" d="M49.9,38.7l-3.2-5L33.6,12.9l-5-7.9l-2.9-4.7C25.5,0.1,25.2,0,25,0l0,0c-0.3,0-0.5,0.1-0.7,0.4l-9.4,14.8
			l-4.2,6.7L3.3,33.6l-3.2,5c-0.2,0.3-0.2,0.7,0.1,1C6.8,46.2,15.7,49.9,25,50c9.3-0.1,18.2-3.8,24.8-10.4
			C50,39.4,50.1,39,49.9,38.7z M31.7,13.1c-0.1,0-0.3,0.1-0.4,0.1c-0.1,0-0.1,0-0.2,0c-0.2,0-0.4,0.1-0.6,0.1c-1.2,0-2.3-0.5-3-1.4
			c-0.7-0.9-1-2.1-0.8-3.2c0,0,0-0.1,0-0.1c0-0.2,0.1-0.4,0.2-0.6c0,0,0-0.1,0-0.1c0.1-0.2,0.2-0.4,0.3-0.5c0,0,0-0.1,0.1-0.1
			c0.1-0.2,0.3-0.4,0.4-0.5c0,0,0,0,0,0l4.1,6.4C31.8,13,31.7,13.1,31.7,13.1z M25,2.2l1.9,3c-0.1,0.1-0.3,0.3-0.4,0.4
			c0,0,0,0,0,0.1C26.3,5.9,26.2,6,26,6.1c0,0.1-0.1,0.1-0.1,0.2c-0.1,0.1-0.2,0.2-0.2,0.4c0,0.1-0.1,0.1-0.1,0.2
			c-0.1,0.1-0.1,0.2-0.2,0.4c0,0.1-0.1,0.2-0.1,0.2c0,0.1-0.1,0.2-0.1,0.4c0,0.1,0,0.2-0.1,0.2c0,0.1-0.1,0.3-0.1,0.4
			c0,0.1,0,0.1,0,0.2c0,0.2,0,0.4,0,0.6c0,3,2.4,5.5,5.5,5.5c0.2,0,0.5,0,0.7,0c0.1,0,0.1,0,0.2,0c0.2,0,0.3-0.1,0.5-0.1
			c0.1,0,0.1,0,0.2,0c0.2-0.1,0.4-0.1,0.6-0.2L45,33.9c-0.1,0.1-0.2,0.1-0.3,0.2c-0.2,0.1-0.4,0.3-0.5,0.4c-0.2,0.1-0.4,0.3-0.6,0.4
			c-0.2,0.1-0.4,0.2-0.5,0.4c-0.2,0.1-0.4,0.3-0.6,0.4c-0.2,0.1-0.4,0.2-0.6,0.3c-0.2,0.1-0.4,0.2-0.6,0.4c-0.2,0.1-0.4,0.2-0.6,0.3
			c-0.2,0.1-0.4,0.2-0.6,0.3c-0.2,0.1-0.4,0.2-0.6,0.3c-0.2,0.1-0.4,0.2-0.7,0.3c-0.2,0.1-0.4,0.2-0.6,0.3c-0.2,0.1-0.4,0.2-0.7,0.3
			c-0.2,0.1-0.4,0.2-0.6,0.2c-0.2,0.1-0.5,0.2-0.7,0.3c-0.2,0.1-0.4,0.1-0.6,0.2c-0.2,0.1-0.5,0.2-0.7,0.2c-0.2,0.1-0.4,0.1-0.6,0.2
			c-0.2,0.1-0.5,0.1-0.7,0.2c-0.2,0.1-0.4,0.1-0.6,0.2c-0.2,0.1-0.5,0.1-0.7,0.2c-0.2,0-0.4,0.1-0.6,0.1C31.5,40,31.2,40,31,40.1
			c-0.2,0-0.4,0.1-0.6,0.1c-0.3,0-0.5,0.1-0.8,0.1c-0.2,0-0.4,0.1-0.6,0.1c-0.3,0-0.5,0.1-0.8,0.1c-0.2,0-0.4,0-0.5,0.1
			c-0.3,0-0.6,0-0.9,0.1c-0.2,0-0.3,0-0.5,0c-0.5,0-0.9,0-1.4,0c-0.5,0-0.9,0-1.3,0c-0.2,0-0.3,0-0.5,0c-0.3,0-0.6,0-0.9-0.1
			c-0.2,0-0.4,0-0.5-0.1c-0.3,0-0.5-0.1-0.8-0.1c-0.2,0-0.4-0.1-0.6-0.1c-0.3,0-0.5-0.1-0.8-0.1c-0.2,0-0.4-0.1-0.6-0.1
			c-0.2,0-0.5-0.1-0.7-0.1c-0.2,0-0.4-0.1-0.6-0.1c-0.2-0.1-0.5-0.1-0.7-0.2c-0.2-0.1-0.4-0.1-0.6-0.2c-0.2-0.1-0.5-0.1-0.7-0.2
			c-0.2-0.1-0.4-0.1-0.6-0.2c-0.2-0.1-0.5-0.2-0.7-0.2c-0.2-0.1-0.4-0.1-0.6-0.2c-0.2-0.1-0.5-0.2-0.7-0.3c-0.2-0.1-0.4-0.2-0.6-0.2
			c-0.2-0.1-0.5-0.2-0.7-0.3c-0.2-0.1-0.4-0.2-0.6-0.3c-0.2-0.1-0.4-0.2-0.7-0.3c-0.2-0.1-0.4-0.2-0.6-0.3c-0.2-0.1-0.4-0.2-0.7-0.3
			c-0.2-0.1-0.4-0.2-0.6-0.3c-0.2-0.1-0.4-0.2-0.6-0.4c-0.2-0.1-0.4-0.2-0.5-0.3c-0.2-0.1-0.4-0.3-0.6-0.4c-0.2-0.1-0.4-0.2-0.5-0.4
			c-0.2-0.1-0.4-0.3-0.6-0.4c-0.2-0.1-0.4-0.3-0.5-0.4C5.2,34,5.1,33.9,5,33.9l6.4-10.1c0,0,0.1,0.1,0.1,0.1
			c0.1,0.1,0.1,0.1,0.2,0.2c0.1,0.1,0.2,0.2,0.4,0.3c0.1,0.1,0.1,0.1,0.2,0.2c0.1,0.1,0.3,0.2,0.5,0.3c0,0,0.1,0.1,0.1,0.1
			c0.2,0.1,0.4,0.2,0.6,0.3c0.1,0,0.1,0,0.2,0.1c0.2,0.1,0.3,0.1,0.5,0.2c0.1,0,0.2,0,0.2,0.1c0.2,0,0.3,0.1,0.5,0.1
			c0.1,0,0.1,0,0.2,0c0.2,0,0.5,0.1,0.7,0.1c1.6,0,3.1-0.7,4.2-1.9s1.5-2.8,1.2-4.4c0,0,0-0.1,0-0.1c0-0.3-0.1-0.5-0.2-0.8
			c0,0,0-0.1-0.1-0.1c-0.1-0.3-0.2-0.5-0.3-0.7c0,0,0,0,0-0.1c-0.1-0.2-0.3-0.4-0.4-0.6c0,0,0-0.1-0.1-0.1c-0.2-0.2-0.3-0.4-0.5-0.6
			l-0.1-0.1c-0.2-0.2-0.4-0.3-0.6-0.5c0,0-0.1,0-0.1-0.1c-0.2-0.1-0.4-0.3-0.7-0.4l-0.1,0c-0.2-0.1-0.5-0.2-0.8-0.3c0,0-0.1,0-0.1,0
			L25,2.2z M16,16.4c0.1,0,0.2,0,0.2,0c0.1,0,0.2,0,0.3,0.1c0.1,0,0.3,0.1,0.4,0.1c0.1,0,0.2,0.1,0.3,0.1c0.1,0.1,0.2,0.1,0.4,0.2
			c0.1,0.1,0.2,0.1,0.3,0.2c0.1,0.1,0.2,0.2,0.3,0.3c0.1,0.1,0.2,0.1,0.2,0.2c0.1,0.1,0.2,0.2,0.3,0.3c0.1,0.1,0.1,0.2,0.2,0.2
			c0.1,0.1,0.1,0.3,0.2,0.4c0,0.1,0.1,0.2,0.1,0.3c0.1,0.2,0.1,0.3,0.1,0.5c0,0.1,0.1,0.2,0.1,0.2c0.3,1.2-0.1,2.5-1,3.4
			c-0.9,0.9-2.1,1.4-3.4,1.2c-0.1,0-0.1,0-0.2,0c-0.1,0-0.2,0-0.3-0.1c-0.1,0-0.1,0-0.2-0.1c-0.1,0-0.2-0.1-0.3-0.1
			c-0.1,0-0.1-0.1-0.2-0.1c-0.1,0-0.2-0.1-0.3-0.1c-0.1,0-0.1-0.1-0.2-0.1c-0.1-0.1-0.2-0.1-0.2-0.2c-0.1,0-0.1-0.1-0.2-0.1
			c-0.1-0.1-0.1-0.1-0.2-0.2c-0.1-0.1-0.1-0.1-0.2-0.2c-0.1-0.1-0.1-0.2-0.2-0.2c0-0.1-0.1-0.1-0.1-0.2c0,0,0,0,0-0.1L16,16.4z
			 M25,48.4C16.3,48.4,8,45,1.8,39l2.4-3.8c0.1,0.1,0.2,0.1,0.3,0.2c0.2,0.1,0.4,0.3,0.6,0.4c0.2,0.1,0.4,0.3,0.6,0.4
			c0.2,0.1,0.4,0.3,0.6,0.4c0.2,0.1,0.4,0.3,0.6,0.4c0.2,0.1,0.4,0.2,0.6,0.3c0.2,0.1,0.4,0.3,0.7,0.4c0.2,0.1,0.4,0.2,0.6,0.3
			c0.2,0.1,0.4,0.2,0.7,0.3c0.2,0.1,0.4,0.2,0.6,0.3c0.2,0.1,0.5,0.2,0.7,0.3c0.2,0.1,0.4,0.2,0.6,0.3c0.2,0.1,0.5,0.2,0.7,0.3
			c0.2,0.1,0.4,0.2,0.6,0.3c0.2,0.1,0.5,0.2,0.7,0.3c0.2,0.1,0.4,0.2,0.6,0.2c0.2,0.1,0.5,0.2,0.7,0.2c0.2,0.1,0.4,0.1,0.6,0.2
			c0.2,0.1,0.5,0.1,0.7,0.2c0.2,0.1,0.4,0.1,0.6,0.2c0.3,0.1,0.5,0.1,0.8,0.2c0.2,0,0.4,0.1,0.6,0.1c0.3,0.1,0.5,0.1,0.8,0.2
			c0.2,0,0.4,0.1,0.6,0.1c0.3,0,0.5,0.1,0.8,0.1c0.2,0,0.4,0.1,0.6,0.1c0.3,0,0.6,0.1,0.8,0.1c0.2,0,0.4,0,0.6,0.1
			c0.3,0,0.6,0,0.9,0.1c0.2,0,0.3,0,0.5,0c0.5,0,0.9,0,1.4,0c0.5,0,0.9,0,1.4,0c0.2,0,0.3,0,0.5,0c0.3,0,0.6,0,0.9-0.1
			c0.2,0,0.4,0,0.6-0.1c0.3,0,0.6-0.1,0.8-0.1c0.2,0,0.4-0.1,0.6-0.1c0.3,0,0.5-0.1,0.8-0.1c0.2,0,0.4-0.1,0.6-0.1
			c0.3,0,0.5-0.1,0.8-0.2c0.2,0,0.4-0.1,0.6-0.1c0.3-0.1,0.5-0.1,0.8-0.2c0.2-0.1,0.4-0.1,0.6-0.2c0.2-0.1,0.5-0.1,0.7-0.2
			c0.2-0.1,0.4-0.1,0.6-0.2c0.2-0.1,0.5-0.2,0.7-0.2c0.2-0.1,0.4-0.1,0.6-0.2c0.2-0.1,0.5-0.2,0.7-0.3c0.2-0.1,0.4-0.2,0.6-0.2
			c0.2-0.1,0.5-0.2,0.7-0.3c0.2-0.1,0.4-0.2,0.6-0.3c0.2-0.1,0.5-0.2,0.7-0.3c0.2-0.1,0.4-0.2,0.6-0.3c0.2-0.1,0.5-0.2,0.7-0.4
			c0.2-0.1,0.4-0.2,0.6-0.3c0.2-0.1,0.4-0.2,0.7-0.4c0.2-0.1,0.4-0.2,0.6-0.3c0.2-0.1,0.4-0.3,0.6-0.4c0.2-0.1,0.4-0.2,0.6-0.4
			c0.2-0.1,0.4-0.3,0.6-0.4c0.2-0.1,0.4-0.3,0.5-0.4c0.1-0.1,0.2-0.1,0.3-0.2l2.4,3.8C42,45,33.7,48.4,25,48.4L25,48.4z"/>
		<path id="Path" d="M44.7,38.2c-5.5,4.7-12.6,7.2-19.9,7.3c-0.4,0-0.8,0.3-0.8,0.8c0,0.4,0.4,0.8,0.8,0.8c7.7,0,15.1-2.7,20.9-7.6
			c0.3-0.3,0.4-0.8,0.1-1.1C45.5,37.9,45,37.9,44.7,38.2L44.7,38.2z"/>
		<path id="Shape_1_" d="M29,30.5c0,3,2.5,5.5,5.5,5.5s5.5-2.5,5.5-5.5S37.5,25,34.5,25C31.5,25,29,27.5,29,30.5L29,30.5z
			 M34.5,26.6c2.2,0,3.9,1.8,3.9,3.9s-1.8,3.9-3.9,3.9s-3.9-1.8-3.9-3.9C30.6,28.3,32.3,26.6,34.5,26.6z"/>
		<path id="Path_1_" d="M34.8,31.3c-0.4,0-0.8,0.4-0.8,0.8c0,0.5,0.3,0.8,0.8,0.8c1.2,0,2.2-1.1,2.2-2.5S36,28,34.8,28
			c-0.4,0-0.8,0.4-0.8,0.8s0.3,0.8,0.8,0.8s0.8,0.4,0.8,0.8S35.2,31.3,34.8,31.3z"/>
		<path id="Path_2_" d="M15.8,19.7c0.4,0,0.8,0.4,0.8,0.8s-0.3,0.8-0.8,0.8S15,21.7,15,22.2s0.3,0.8,0.8,0.8c1.2,0,2.2-1.1,2.2-2.5
			S17,18,15.8,18c-0.4,0-0.8,0.4-0.8,0.8S15.3,19.7,15.8,19.7z"/>
		<path id="Path_3_" d="M31,18c0.4,0,0.9,0,1.3-0.1c0.3,0,0.5-0.2,0.6-0.5c0.1-0.3,0.1-0.6-0.1-0.8s-0.5-0.3-0.8-0.3
			c-2,0.3-4-0.2-5.6-1.5s-2.6-3.1-2.8-5.1c0-0.5-0.5-0.8-0.9-0.7S22,9.5,22,9.9C22.5,14.5,26.4,18,31,18z"/>
		<path id="Path_4_" d="M11.4,28c2.7,1.4,5.9,1.3,8.4-0.2s4.1-4.2,4.1-7.1c0-0.4-0.3-0.7-0.8-0.7c-0.4,0-0.8,0.3-0.8,0.7
			c0,2.4-1.3,4.6-3.4,5.8s-4.7,1.3-6.9,0.2c-0.2-0.1-0.5-0.1-0.8,0S11,27.1,11,27.4C11,27.7,11.2,27.9,11.4,28z"/>
		<path id="Path_5_" d="M25.2,37.3c-5.7,0-11.3-1.8-16-5.2C9,32,8.7,32,8.4,32.1C8.2,32.2,8,32.5,8,32.8c0,0.3,0.1,0.6,0.4,0.7
			c5,3.5,10.9,5.4,16.9,5.5c0.4,0,0.8-0.4,0.8-0.8C26,37.7,25.7,37.3,25.2,37.3L25.2,37.3z"/>
		<path id="Path_6_" d="M27.3,37.3c-0.3,0.3-0.4,0.8-0.2,1.2c0.2,0.4,0.7,0.6,1.1,0.5c0.4-0.1,0.7-0.5,0.7-1c0-0.3-0.1-0.5-0.3-0.7
			C28.3,36.9,27.7,36.9,27.3,37.3L27.3,37.3z"/>
		<path id="Path_7_" d="M20.5,31.7c0.5,0,0.8,0.4,0.8,0.8s0.4,0.8,0.8,0.8S23,33,23,32.5c0-1.4-1.1-2.5-2.5-2.5S18,31.1,18,32.5
			c0,1.4,1.1,2.5,2.5,2.5c0.5,0,0.8-0.4,0.8-0.8c0-0.5-0.4-0.8-0.8-0.8s-0.8-0.4-0.8-0.8S20,31.7,20.5,31.7z"/>
		<path id="Path_8_" d="M29.8,22.3c-0.4,0-0.8,0.4-0.8,0.8s0.3,0.8,0.8,0.8c1.2,0,2.2-1.1,2.2-2.5S31,19,29.8,19
			c-0.4,0-0.8,0.4-0.8,0.8s0.3,0.8,0.8,0.8s0.8,0.4,0.8,0.8S30.2,22.3,29.8,22.3z"/>
		<path id="Path_9_" d="M25.3,24.3c-0.3,0.3-0.4,0.7-0.2,1.1c0.2,0.4,0.5,0.6,0.9,0.6c0.3,0,0.5-0.1,0.7-0.3S27,25.3,27,25
			c0-0.4-0.2-0.8-0.6-0.9C26,23.9,25.6,24,25.3,24.3z"/>
		<path id="Path_10_" d="M20,15c0.5,0,0.9-0.3,1-0.8c0.1-0.5-0.2-0.9-0.6-1.1s-0.9,0-1.2,0.4c-0.3,0.4-0.2,0.9,0.1,1.3
			C19.5,14.9,19.7,15,20,15L20,15z"/>
		<path id="Path_11_" d="M11,32c0.4,0,0.8-0.2,0.9-0.6c0.2-0.4,0.1-0.8-0.2-1.1c-0.4-0.4-1-0.4-1.4,0c-0.3,0.3-0.4,0.7-0.2,1.1
			C10.2,31.8,10.6,32,11,32z"/>
		<path id="Path_12_" d="M13.3,32.3c-0.4,0.4-0.4,1,0,1.4s1,0.4,1.4,0s0.4-1,0-1.4C14.3,31.9,13.7,31.9,13.3,32.3L13.3,32.3z"/>
		<path id="Path_13_" d="M35,24c0.6,0,1-0.4,1-1s-0.4-1-1-1s-1,0.4-1,1c0,0.3,0.1,0.5,0.3,0.7C34.5,23.9,34.7,24,35,24L35,24z"/>
		<path id="Path_14_" d="M24,7c0.3,0,0.5-0.1,0.7-0.3C24.9,6.5,25,6.3,25,6c0-0.6-0.4-1-1-1c-0.6,0-1,0.4-1,1S23.4,7,24,7z"/>
	</g>
</g>
</svg>
