<svg xmlns="http://www.w3.org/2000/svg" viewBox="0 0 789 107"><defs><style>.a{fill:#1a1a1a;}</style></defs><path d="M108.07,68.77c5.09,3.45,12.29,6.14,18.91,6.14,4.9,0,9.12-1,9.12-4.7,0-2.88-1.82-3.84-5-5l-8.93-2.6c-9.88-2.87-15.36-7.77-15.36-17.56,0-11.71,9.89-18.14,22.27-18.14,8,0,13.64,1.72,18.53,4.41V45.54a30.77,30.77,0,0,0-17.85-5.86c-4.42,0-7.78,1.25-7.78,4.23,0,2.68,1.82,3.74,4.9,4.7l8.92,2.69c10.75,3.36,15.65,9,15.65,18,0,12.77-10.85,18.43-24.09,18.43-7.87,0-15-2.2-19.3-4.8Z"/><path d="M177.19,86.81h-15V55.33h-7.49V43.62h7.49V31.71h15V43.62h8.45V55.33h-8.45Z"/><path d="M220.2,57.92A13,13,0,0,0,214,56.58c-4.13,0-6.91,1.82-7.68,4.89V86.81H191.21V43.62h15.07v3.84a11.78,11.78,0,0,1,9.79-4.8,9.35,9.35,0,0,1,4.13.77Z"/><path d="M238,68.67c1.25,5.19,5.47,7.3,11,7.3a22.22,22.22,0,0,0,12.48-3.46V83.93c-3.36,2.5-8.64,3.84-14.88,3.84-13.83,0-23.23-8.35-23.23-22.27,0-13.53,9-22.84,20.92-22.84,13.44,0,20.26,8.73,20.26,21.6v4.41Zm.19-8.44h13c-.39-3.65-2.59-6.15-6.24-6.15C241.6,54.08,239.21,56.29,238.15,60.23Z"/><path d="M283.27,68.67c1.25,5.19,5.47,7.3,11,7.3a22.22,22.22,0,0,0,12.48-3.46V83.93c-3.36,2.5-8.64,3.84-14.88,3.84-13.83,0-23.23-8.35-23.23-22.27,0-13.53,9-22.84,20.92-22.84,13.44,0,20.26,8.73,20.26,21.6v4.41Zm.19-8.44h13c-.39-3.65-2.59-6.15-6.24-6.15C286.92,54.08,284.52,56.29,283.46,60.23Z"/><path d="M335.68,86.81h-15V55.33h-7.49V43.62h7.49V31.71h15V43.62h8.45V55.33h-8.45Z"/><path d="M350.08,86.81V27.88h41.47V41.22h-26.2V52.93h24.09V66H365.35V86.81Z"/><path d="M416.7,87.77c-13.05,0-22.08-9.21-22.08-22.55s9-22.56,22.08-22.56,22.08,9.21,22.08,22.56S429.85,87.77,416.7,87.77Zm0-32.73c-4.6,0-7.2,4.23-7.2,10.18s2.6,10.08,7.2,10.08,7.3-4.13,7.3-10.08S421.41,55,416.7,55Z"/><path d="M465,87.77c-13.05,0-22.08-9.21-22.08-22.55s9-22.56,22.08-22.56,22.08,9.21,22.08,22.56S478.14,87.77,465,87.77ZM465,55c-4.61,0-7.2,4.23-7.2,10.18S460.38,75.3,465,75.3s7.3-4.13,7.3-10.08S469.69,55,465,55Z"/><path d="M521.15,83.36a15,15,0,0,1-10.66,4.41C498,87.77,491.2,77.7,491.2,65.22S498,42.66,510.49,42.66a15,15,0,0,1,10.66,4.41V24.42h15.07V86.81H521.15Zm0-23.9a7.5,7.5,0,0,0-6.62-4c-5.19,0-8.26,4.22-8.26,9.79s3.07,9.69,8.26,9.69a7.24,7.24,0,0,0,6.62-4Z"/><path d="M572.6,26.92c6.24,0,11.24,1.53,15,4v15a22,22,0,0,0-13.73-4.8c-9.79,0-16,6.05-16,16.23s6.24,16.12,16,16.12a21.85,21.85,0,0,0,13.73-4.7v15c-3.74,2.5-8.74,4-15,4-18,0-30.23-12.09-30.23-30.42S554.65,26.92,572.6,26.92Z"/><path d="M602.65,40c-4.6,0-8.54-3.17-8.54-8.06s3.94-8.16,8.54-8.16,8.55,3.17,8.55,8.16S607.26,40,602.65,40Zm7.49,46.84H595.07V43.62h15.07Z"/><path d="M638.27,86.81h-15V55.33H615.8V43.62h7.49V31.71h15V43.62h8.44V55.33h-8.44Z"/><path d="M658.71,102.08l6.34-16.32L648.92,43.62h15.65l8.26,24.57,8.06-24.57h15l-22.27,58.46Z"/><polygon class="a" points="781 57.96 716.37 57.96 716.37 25.24 659.12 25.24 659.12 6.08 499.08 6.08 499.08 25.24 412.62 25.24 412.62 6.08 302.37 6.08 302.37 25.24 207.19 25.24 207.19 6.08 85.14 6.08 85.14 57.96 20 57.96 20 53.96 81.14 53.96 81.14 2.08 211.19 2.08 211.19 21.24 298.37 21.24 298.37 2.08 416.62 2.08 416.62 21.24 495.08 21.24 495.08 2.08 663.12 2.08 663.12 21.24 720.37 21.24 720.37 53.96 781 53.96 781 57.96"/></svg>