<?xml version="1.0" encoding="UTF-8"?>
<svg width="226px" height="34px" viewBox="0 0 226 34" version="1.1" xmlns="http://www.w3.org/2000/svg" xmlns:xlink="http://www.w3.org/1999/xlink">
    <!-- Generator: Sketch 63.1 (92452) - https://sketch.com -->
    <title>Group</title>
    <desc>Created with Sketch.</desc>
    <g id="Symbols" stroke="none" stroke-width="1" fill="none" fill-rule="evenodd">
        <g id="1.2-logo" transform="translate(-59.000000, -7.000000)">
            <g id="Group" transform="translate(59.487305, 9.861328)">
                <path d="M33.1489893,26.4186719 C37.0129893,26.4186719 40.1769893,24.7666719 40.1769893,21.0426719 C40.1769893,18.4106719 38.7489893,16.7586719 35.6129893,15.7786719 L33.0089893,14.9946719 C32.1129893,14.7146719 31.5809893,14.4066719 31.5809893,13.6226719 C31.5809893,12.7546719 32.5609893,12.3906719 33.8489893,12.3906719 C35.8089893,12.3906719 37.5169893,13.0346719 39.0569893,14.0986719 L39.0569893,9.95467188 C37.6289893,9.17067188 35.9769893,8.66667188 33.6529893,8.66667188 C30.0409893,8.66667188 27.1569893,10.5426719 27.1569893,13.9586719 C27.1569893,16.8146719 28.7529893,18.2426719 31.6369893,19.0826719 L34.2409893,19.8386719 C35.1649893,20.1746719 35.6969893,20.4546719 35.6969893,21.2946719 C35.6969893,22.3586719 34.4649893,22.6666719 33.0369893,22.6666719 C31.1049893,22.6666719 29.0049893,21.8826719 27.5209893,20.8746719 L27.5209893,25.0186719 C28.7809893,25.7746719 30.8529893,26.4186719 33.1489893,26.4186719 Z M47.7859893,26.1386719 L47.7859893,16.9546719 L50.2499893,16.9546719 L50.2499893,13.5386719 L47.7859893,13.5386719 L47.7859893,10.0666719 L43.4179893,10.0666719 L43.4179893,13.5386719 L41.2339893,13.5386719 L41.2339893,16.9546719 L43.4179893,16.9546719 L43.4179893,26.1386719 L47.7859893,26.1386719 Z M56.3749893,26.1386719 L56.3749893,18.7466719 C56.5989893,17.8506719 57.4109893,17.3186719 58.6149893,17.3186719 C59.3149893,17.3186719 59.9029893,17.4306719 60.4349893,17.7106719 L60.4349893,13.4826719 C60.2389893,13.3706719 59.7909893,13.2586719 59.2309893,13.2586719 C57.9709893,13.2586719 56.9909893,13.8186719 56.3749893,14.6586719 L56.3749893,13.5386719 L51.9789893,13.5386719 L51.9789893,26.1386719 L56.3749893,26.1386719 Z M68.2399893,26.4186719 C70.0599893,26.4186719 71.5999893,26.0266719 72.5799893,25.2986719 L72.5799893,21.9666719 C71.3199893,22.7226719 70.2839893,22.9746719 68.9399893,22.9746719 C67.3159893,22.9746719 66.0839893,22.3586719 65.7199893,20.8466719 L73.4759893,20.8466719 L73.4759893,19.5586719 C73.4759893,15.8066719 71.4879893,13.2586719 67.5679893,13.2586719 C64.0959893,13.2586719 61.4639893,15.9746719 61.4639893,19.9226719 C61.4639893,23.9826719 64.2079893,26.4186719 68.2399893,26.4186719 Z M69.5559893,18.3826719 L65.7759893,18.3826719 C66.0839893,17.2346719 66.7839893,16.5906719 67.7359893,16.5906719 C68.7999893,16.5906719 69.4439893,17.3186719 69.5559893,18.3826719 Z M81.5609893,26.4186719 C83.3809893,26.4186719 84.9209893,26.0266719 85.9009893,25.2986719 L85.9009893,21.9666719 C84.6409893,22.7226719 83.6049893,22.9746719 82.2609893,22.9746719 C80.6369893,22.9746719 79.4049893,22.3586719 79.0409893,20.8466719 L86.7969893,20.8466719 L86.7969893,19.5586719 C86.7969893,15.8066719 84.8089893,13.2586719 80.8889893,13.2586719 C77.4169893,13.2586719 74.7849893,15.9746719 74.7849893,19.9226719 C74.7849893,23.9826719 77.5289893,26.4186719 81.5609893,26.4186719 Z M82.8769893,18.3826719 L79.0969893,18.3826719 C79.4049893,17.2346719 80.1049893,16.5906719 81.0569893,16.5906719 C82.1209893,16.5906719 82.7649893,17.3186719 82.8769893,18.3826719 Z M94.4339893,26.1386719 L94.4339893,16.9546719 L96.8979893,16.9546719 L96.8979893,13.5386719 L94.4339893,13.5386719 L94.4339893,10.0666719 L90.0659893,10.0666719 L90.0659893,13.5386719 L87.8819893,13.5386719 L87.8819893,16.9546719 L90.0659893,16.9546719 L90.0659893,26.1386719 L94.4339893,26.1386719 Z M103.190989,26.1386719 L103.190989,20.0626719 L110.218989,20.0626719 L110.218989,16.2546719 L103.190989,16.2546719 L103.190989,12.8386719 L110.834989,12.8386719 L110.834989,8.94667188 L98.7389893,8.94667188 L98.7389893,26.1386719 L103.190989,26.1386719 Z M118.275989,26.4186719 C122.111989,26.4186719 124.715989,23.7306719 124.715989,19.8386719 C124.715989,15.9466719 122.111989,13.2586719 118.275989,13.2586719 C114.467989,13.2586719 111.835989,15.9466719 111.835989,19.8386719 C111.835989,23.7306719 114.467989,26.4186719 118.275989,26.4186719 Z M118.275989,22.7786719 C116.931989,22.7786719 116.175989,21.5746719 116.175989,19.8386719 C116.175989,18.1026719 116.931989,16.8706719 118.275989,16.8706719 C119.647989,16.8706719 120.403989,18.1026719 120.403989,19.8386719 C120.403989,21.5746719 119.647989,22.7786719 118.275989,22.7786719 Z M132.464989,26.4186719 C136.300989,26.4186719 138.904989,23.7306719 138.904989,19.8386719 C138.904989,15.9466719 136.300989,13.2586719 132.464989,13.2586719 C128.656989,13.2586719 126.024989,15.9466719 126.024989,19.8386719 C126.024989,23.7306719 128.656989,26.4186719 132.464989,26.4186719 Z M132.464989,22.7786719 C131.120989,22.7786719 130.364989,21.5746719 130.364989,19.8386719 C130.364989,18.1026719 131.120989,16.8706719 132.464989,16.8706719 C133.836989,16.8706719 134.592989,18.1026719 134.592989,19.8386719 C134.592989,21.5746719 133.836989,22.7786719 132.464989,22.7786719 Z M145.841989,26.4186719 C147.129989,26.4186719 148.361989,25.8026719 148.949989,25.1306719 L148.949989,26.1386719 L153.345989,26.1386719 L153.345989,7.93867188 L148.949989,7.93867188 L148.949989,14.5466719 C148.361989,13.8746719 147.129989,13.2586719 145.841989,13.2586719 C142.201989,13.2586719 140.213989,16.1986719 140.213989,19.8386719 C140.213989,23.4786719 142.201989,26.4186719 145.841989,26.4186719 Z M147.017989,22.6666719 C145.505989,22.6666719 144.609989,21.4626719 144.609989,19.8386719 C144.609989,18.2146719 145.505989,16.9826719 147.017989,16.9826719 C147.857989,16.9826719 148.613989,17.4866719 148.949989,18.1586719 L148.949989,21.4906719 C148.613989,22.1906719 147.885989,22.6666719 147.017989,22.6666719 Z M164.062989,26.4186719 C165.882989,26.4186719 167.338989,25.9706719 168.430989,25.2426719 L168.430989,20.8746719 C167.198989,21.8266719 165.854989,22.2466719 164.426989,22.2466719 C161.570989,22.2466719 159.750989,20.4826719 159.750989,17.5426719 C159.750989,14.5746719 161.570989,12.8106719 164.426989,12.8106719 C165.854989,12.8106719 167.198989,13.2586719 168.430989,14.2106719 L168.430989,9.84267188 C167.338989,9.11467188 165.882989,8.66667188 164.062989,8.66667188 C158.826989,8.66667188 155.242989,12.1946719 155.242989,17.5426719 C155.242989,22.8906719 158.826989,26.4186719 164.062989,26.4186719 Z M172.931989,12.4746719 C174.275989,12.4746719 175.423989,11.5506719 175.423989,10.1226719 C175.423989,8.66667188 174.275989,7.74267188 172.931989,7.74267188 C171.587989,7.74267188 170.439989,8.66667188 170.439989,10.1226719 C170.439989,11.5506719 171.587989,12.4746719 172.931989,12.4746719 Z M175.115989,26.1386719 L175.115989,13.5386719 L170.719989,13.5386719 L170.719989,26.1386719 L175.115989,26.1386719 Z M183.424989,26.1386719 L183.424989,16.9546719 L185.888989,16.9546719 L185.888989,13.5386719 L183.424989,13.5386719 L183.424989,10.0666719 L179.056989,10.0666719 L179.056989,13.5386719 L176.872989,13.5386719 L176.872989,16.9546719 L179.056989,16.9546719 L179.056989,26.1386719 L183.424989,26.1386719 Z M193.833989,30.5906719 L200.329989,13.5386719 L195.961989,13.5386719 L193.609989,20.7066719 L191.201989,13.5386719 L186.637989,13.5386719 L191.341989,25.8306719 L189.493989,30.5906719 L193.833989,30.5906719 Z" id="StreetFoodCity" fill="#000000" fill-rule="nonzero"></path>
                <polyline id="Path-3" stroke="#1A1A1A" stroke-width="4" points="-4.35429816e-12 15.1386719 18.7109375 15.1386719 18.7109375 0 56.0615234 0 56.0615234 5.59082031 83.0779127 5.59082031 83.0779127 0 116.931641 0 116.931641 5.59082031 141.368164 5.59082031 141.368164 0 189.973633 0 189.973633 5.59082031 206.9375 5.59082031 206.9375 15.1386719 225.49707 15.1386719"></polyline>
            </g>
        </g>
    </g>
</svg>