<svg xmlns="http://www.w3.org/2000/svg"><defs><style>.a{fill:none;}</style><style>.a{fill:none;}</style><style>.a{fill:#1a1a1a;}</style></defs><symbol viewBox="0 0 64 35.5" id="arrow-up"><title>arrow-up</title> <path d="M33.4,4.6c-0.8-0.8-2-0.8-2.8,0c0,0,0,0,0,0l-24,24c-0.8,0.8-0.8,2,0,2.8c0.8,0.8,2,0.8,2.8,0L32,8.8l22.6,22.6
	c0.8,0.8,2,0.8,2.8,0c0.8-0.8,0.8-2,0-2.8L33.4,4.6z"/> </symbol><symbol viewBox="0 0 22 24" id="hand-point-down"><title>hand-point-down</title> <path fill-rule="evenodd" d="M8.85,24 C6.73598437,24 4.95,22.2140156 4.95,20.1 L4.95,16.0605 C4.62604688,16.1243438 4.27621875,16.1625 3.9,16.1625 C1.65403125,16.1625 0,14.5185 0,11.85 C0,9.72590625 2.27517187,9.17803125 3.69304687,8.30123437 C4.27485938,7.93865625 4.78598437,7.50459375 5.25178125,7.08946875 L5.258625,7.08332812 L5.2655625,7.07728125 C6.08470312,6.35910938 6.375,5.98889062 6.375,5.66245313 L6.375,5.536875 C6.142875,5.26748438 6,4.902375 6,4.5 L6,1.5 C6,0.671578125 6.60440625,0 7.35,0 L18.15,0 C18.8955937,0 19.5,0.671578125 19.5,1.5 L19.5,4.50004687 C19.5,4.90242187 19.357125,5.26753125 19.125,5.53692187 L19.125,5.6625 C19.125,7.00725 21,8.80954688 21,11.625 L21,12.6233906 C21,15.5550469 19.1879062,17.2546875 16.7275781,17.3080781 C15.8925938,17.8931719 14.8157813,18.1748906 13.78425,18.057375 C13.4565299,18.2243313 13.1090279,18.3492109 12.75,18.4290469 L12.75,20.1 C12.75,22.2297656 10.98825,24 8.85,24 Z M8.85,21.75 C9.73945312,21.75 10.5,20.9894531 10.5,20.1 L10.5,15.8332031 C11.1876094,16.4349375 12.5074219,16.5089063 13.3617187,15.6011719 C14.282625,16.1273906 15.5003438,15.68025 15.8753906,14.9953125 C17.7095156,15.3010781 18.75,14.5229531 18.75,12.6233906 L18.75,11.625 C18.75,9.49260938 17.0665781,8.00578125 16.8901406,6 L8.60489063,6 C8.466,7.18307813 7.61010938,8.01403125 6.74882813,8.76914063 C6.15585938,9.29765625 5.56289063,9.7875 4.8796875,10.2128437 C3.783375,10.8916406 2.25,11.4377812 2.25,11.85 C2.25,12.9457031 2.6625,13.9125 3.9,13.9125 C5.55,13.9125 6.38789063,12.675 7.2,12.675 L7.2,20.1 C7.2,20.9636719 7.9734375,21.75 8.85,21.75 Z M15.375,3 C15.375,3.62132812 15.8786719,4.125 16.5,4.125 C17.1213281,4.125 17.625,3.62132812 17.625,3 C17.625,2.37867187 17.1213281,1.875 16.5,1.875 C15.8786719,1.875 15.375,2.37867187 15.375,3 Z" transform="translate(.5)"/> </symbol><symbol viewBox="0 0 50 50" id="icon-food-burrito"><title>icon-food-burrito</title><path d="M35.23,34a.73.73,0,0,0-.73-.73H27.94a.73.73,0,1,0,0,1.46H34.5A.73.73,0,0,0,35.23,34Z"/><path d="M27.94,23.83a.72.72,0,0,0-.73-.73H9.84a.73.73,0,0,0,0,1.46H27.21A.73.73,0,0,0,27.94,23.83Z"/><path d="M14.83,34a.73.73,0,0,0-.73-.73H6.81a.75.75,0,0,1-.73-.73.73.73,0,0,0-1.46,0,2.23,2.23,0,0,0,2.19,2.19H14.1A.73.73,0,0,0,14.83,34Z"/><path d="M26.48,34a.73.73,0,0,0-.72-.73H19.93a.73.73,0,1,0,0,1.46h5.83A.73.73,0,0,0,26.48,34Z"/><path d="M17.53,33.52A.73.73,0,0,0,17,33.3a.78.78,0,0,0-.52.21.75.75,0,0,0,0,1,.77.77,0,0,0,.71.19.73.73,0,0,0,.33-1.22Z"/><path d="M30.65,23.31a.75.75,0,0,0-1,0,.73.73,0,0,0,1,1A.73.73,0,0,0,30.65,23.31Z"/><path d="M40.85,29.14A.73.73,0,0,0,40,29a.72.72,0,0,0-.34.81.74.74,0,0,0,.7.55.79.79,0,0,0,.52-.22.76.76,0,0,0,0-1Z"/><path d="M44,22.37a.78.78,0,0,0,.21.52.74.74,0,0,0,1.2-.8.73.73,0,0,0-.68-.45.72.72,0,0,0-.73.73Z"/><path d="M41.79,25.28a.72.72,0,0,0,.73.73A.71.71,0,0,0,43,25.8a.76.76,0,0,0,0-1,.71.71,0,0,0-.51-.21.68.68,0,0,0-.52.21A.66.66,0,0,0,41.79,25.28Z"/><path d="M38.66,22.58a.76.76,0,0,0-.52-.21.73.73,0,0,0,0,1.46.76.76,0,0,0,.52-.21.77.77,0,0,0,0-1Z"/><path d="M41.27,16.75a.73.73,0,1,0,1,1,.77.77,0,0,0,0-1,.74.74,0,0,0-.51-.21.76.76,0,0,0-.52.21Z"/><path d="M40.39,26.76a.72.72,0,0,0-.06.29.73.73,0,0,0,.44.67,2.93,2.93,0,0,1,1.75,2.67.73.73,0,0,0,1.45,0,4.38,4.38,0,0,0-2.62-4A.73.73,0,0,0,40.39,26.76Z"/><path d="M33.77,16.54a.72.72,0,0,0,1.39.27A.72.72,0,0,0,34,16a.78.78,0,0,0-.21.52Z"/><path d="M31.37,17.48a.73.73,0,0,0-1.24.52.73.73,0,0,0,1.24.52.77.77,0,0,0,0-1Z"/><path d="M25.76,16.54a.73.73,0,0,0,.21.52.75.75,0,0,0,.51.21.73.73,0,1,0,0-1.46A.75.75,0,0,0,26,16a.73.73,0,0,0-.21.52Z"/><path d="M23.36,17.48a.74.74,0,0,0-1,1,.78.78,0,0,0,.52.21.74.74,0,0,0,.51-.21.76.76,0,0,0,0-1Z"/><path d="M16.07,17.48a.73.73,0,0,0-1,1,.73.73,0,0,0,1,0A.77.77,0,0,0,16.07,17.48Z"/><path d="M13.16,16.33a.77.77,0,0,0,0-1,.75.75,0,0,0-1,0,.78.78,0,0,0-.21.52.76.76,0,0,0,.21.52.75.75,0,0,0,1,0Z"/><path d="M5.14,20.4a.72.72,0,0,0-1,0,.69.69,0,0,0-.21.51.73.73,0,0,0,1.36.36A.73.73,0,0,0,5.14,20.4Z"/><path d="M10.24,17.48a.72.72,0,0,0-.88-.11.71.71,0,0,0-.33.81.74.74,0,0,0,.7.55.75.75,0,0,0,.51-.21A.77.77,0,0,0,10.24,17.48Z"/><path d="M6.6,16.75a.74.74,0,0,0-1,1,.78.78,0,0,0,.52.21.76.76,0,0,0,.52-.21.77.77,0,0,0,0-1Z"/><path d="M18.47,15.81a.73.73,0,0,0,1.36.36.74.74,0,0,0-.11-.88.78.78,0,0,0-.52-.21.76.76,0,0,0-.52.21.73.73,0,0,0-.21.52Z"/><path d="M38.87,36.83a2.77,2.77,0,0,0,.73-2.07,4.36,4.36,0,0,0,1.91-.45,4,4,0,0,0,6.83-2.71A4,4,0,0,0,46,27.86a4.3,4.3,0,0,0,.86-2.58h0A3.62,3.62,0,0,0,46.16,19a4.69,4.69,0,0,0-6.69-4.24,2.39,2.39,0,0,0-.6-1.06c-.87-.87-2.24-.86-3.82-.84H6.81A5.1,5.1,0,0,0,1.71,18V32.57a5.1,5.1,0,0,0,5.1,5.1H35.05C36.63,37.69,38,37.7,38.87,36.83ZM44.7,19.09c0,.13,0,.25,0,.37a.73.73,0,0,0,.55.8,2.16,2.16,0,0,1,.54,4,.74.74,0,0,0-.37.72l0,.12c0,.06,0,.12,0,.18a2.85,2.85,0,0,1-1.23,2.35A.73.73,0,0,0,44.56,29a2.54,2.54,0,1,1-1.86,4.48.71.71,0,0,0,0-.8h0a.76.76,0,0,0-.53-.3.72.72,0,0,0-.58.2,2.89,2.89,0,0,1-2,.77l-.38,0c-.28-1-.68-2.3-1.18-3.72a2.2,2.2,0,0,0,1.56-2.09v-.73a2.18,2.18,0,0,0-2.19-2.18H36.29L38,20.18h2.36a.73.73,0,0,1,.73.73v.73a.73.73,0,0,1-.73.73.73.73,0,1,0,0,1.46,2.19,2.19,0,0,0,2.19-2.19v-.73a2.19,2.19,0,0,0-2.19-2.18h-1.8l.84-2.19a3.27,3.27,0,0,1,5.33,2.55ZM36.64,26h.77a.73.73,0,0,1,.73.73v.73a.73.73,0,0,1-.61.72C37.26,27.46,37,26.73,36.64,26ZM6.81,14.35H35.06c1.21,0,2.34,0,2.78.42a1.32,1.32,0,0,1,.3.91l-.06.16h0l-2.85,7.41a6.23,6.23,0,0,0-2.88-2.92l-.08,0L32,20.23a1.9,1.9,0,0,0-.4-.05H9.73l-.45,0-.13,0-.33.08-.13.05-.38.16-.06,0-.42.25-.12.08a3.09,3.09,0,0,0-.31.23l-.13.1-.34.29-.07.06c-.13.13-.27.26-.4.4l-.09.1-.31.34L6,22.54l-.31.38a.61.61,0,0,1-.07.1c-.12.16-.25.32-.37.5l0,.08c-.11.14-.2.29-.3.43l-.09.15q-.13.2-.27.42l-.07.11-.33.54,0,0-.28.5-.07.14-.22.41-.07.13c-.09.17-.18.34-.26.51V18A3.66,3.66,0,0,1,6.81,14.35ZM35.06,36.21H6.81a3.64,3.64,0,0,1-3.64-3.64v-2a3.65,3.65,0,0,1,.14-.35,2.77,2.77,0,0,1,.1-.26c.06-.14.12-.29.19-.44s.07-.18.12-.27.13-.3.2-.45l.13-.28c.07-.16.15-.32.23-.48l.14-.27c.07-.15.16-.31.24-.47s.09-.19.14-.28.17-.31.25-.46l.16-.29.26-.43.17-.29.26-.41.18-.28.26-.38.2-.28c.08-.12.17-.23.26-.35l.2-.25.27-.31A2.11,2.11,0,0,1,7.46,23l.27-.27.19-.2.27-.22.2-.16L8.66,22l.18-.11a1.88,1.88,0,0,1,.3-.12.94.94,0,0,1,.15-.06,1.62,1.62,0,0,1,.44-.07H31.59l.14,0c.46.09,1.47.68,2.95,3.65.09.17.17.35.26.52L35,26c.14.3.28.61.41.93l.08.18c.06.13.11.27.17.41s.11.27.17.41l.15.37.28.75c.77,2.08,1.36,4,1.65,5.05v0c.07.24.13.47.19.7a1.29,1.29,0,0,1-.3.94C37.4,36.23,36.27,36.23,35.06,36.21Z"/></symbol><symbol viewBox="0 0 50 50" id="icon-food-kebab"><title>icon-food-kebab</title><path d="M42.34,31a5.4,5.4,0,0,0,5.3-4.71h1.59a.79.79,0,0,0,0-1.58H47.64a5.33,5.33,0,0,0-10.59,0h-1.6V22.36A2.33,2.33,0,0,0,33.16,20H27.8a2.33,2.33,0,0,0-2.3,2.36v2.35H23.91a5.34,5.34,0,0,0-10.6,0H1.77a.79.79,0,0,0,0,1.58H13.31a5.34,5.34,0,0,0,10.6,0H25.5v2.35A2.33,2.33,0,0,0,27.8,31h5.36a2.33,2.33,0,0,0,2.29-2.36V26.29h1.6A5.4,5.4,0,0,0,42.34,31ZM18.61,29.43a3.93,3.93,0,1,1,3.83-3.93,3.88,3.88,0,0,1-3.83,3.93Zm14.55,0H27.8a.77.77,0,0,1-.77-.79V22.36a.77.77,0,0,1,.77-.79h5.36a.77.77,0,0,1,.76.79v6.28A.77.77,0,0,1,33.16,29.43Zm9.18-7.86a3.93,3.93,0,1,1-3.82,3.93A3.88,3.88,0,0,1,42.34,21.57Z"/><path d="M42.75,25.5a.75.75,0,0,0,0,1.5A2.25,2.25,0,0,0,45,24.75a.75.75,0,0,0-1.5,0A.76.76,0,0,1,42.75,25.5Z"/><path d="M20.25,24a.76.76,0,0,0-.75.75.76.76,0,0,1-.75.75.75.75,0,0,0,0,1.5A2.25,2.25,0,0,0,21,24.75.76.76,0,0,0,20.25,24Z"/><path d="M31.7,24.5a.78.78,0,0,0-.8.75V26H29.3a.75.75,0,1,0,0,1.5h2.4a.78.78,0,0,0,.8-.75v-1.5A.78.78,0,0,0,31.7,24.5Z"/><path d="M15.25,37a.76.76,0,0,0-.75.75.76.76,0,0,1-.75.75.75.75,0,0,0,0,1.5A2.25,2.25,0,0,0,16,37.75.76.76,0,0,0,15.25,37Z"/><path d="M31.26,40.63V38.28h1.55v3.93a.81.81,0,0,0,.43.71.78.78,0,0,0,.82-.08l9-4.56h2.14a.79.79,0,0,0,0-1.57H43.08l-9.15-4.63a.75.75,0,0,0-.75,0,.79.79,0,0,0-.37.67v3.92H31.26V34.36A2.35,2.35,0,0,0,28.93,32H23.5a2.35,2.35,0,0,0-2.33,2.36v2.35H19.56a5.42,5.42,0,0,0-10.74,0h-7a.79.79,0,0,0,0,1.57h7a5.42,5.42,0,0,0,10.74,0h1.61v2.35A2.34,2.34,0,0,0,23.5,43h5.43A2.34,2.34,0,0,0,31.26,40.63Zm9.9-3.14-6.8,3.44V34.06Zm-27,3.92a3.92,3.92,0,1,1,3.88-3.92,3.9,3.9,0,0,1-3.88,3.92Zm9.31,0a.78.78,0,0,1-.78-.78V34.36a.78.78,0,0,1,.78-.79h5.43a.78.78,0,0,1,.78.79v6.27a.78.78,0,0,1-.78.78Z"/><path d="M27.5,38.75v-1.5a.8.8,0,0,0-1.6,0V38H24.3a.75.75,0,1,0,0,1.5h2.4A.78.78,0,0,0,27.5,38.75Z"/><path d="M15.25,12a.76.76,0,0,0-.75.75.76.76,0,0,1-.75.75.75.75,0,0,0,0,1.5A2.25,2.25,0,0,0,16,12.75.76.76,0,0,0,15.25,12Z"/><path d="M38.9,13H37.3a.75.75,0,1,0,0,1.5h2.4a.78.78,0,0,0,.8-.75v-1.5a.8.8,0,0,0-1.6,0Z"/><path d="M34,38a1,1,0,0,0,.62.92,1,1,0,0,0,1.1-.21,1,1,0,0,0,0-1.42,1,1,0,0,0-1.1-.21A1,1,0,0,0,34,38Z"/><path d="M22.22,14.75a3.74,3.74,0,0,0,2.4,3.46,4,4,0,0,0,4.23-.81,6.87,6.87,0,0,0,1.87-4.14h2.37V15.5a2.29,2.29,0,0,0,2.32,2.25h5.43a2.29,2.29,0,0,0,2.33-2.25V13.26h1.55a.75.75,0,1,0,0-1.5H43.17V9.51a2.29,2.29,0,0,0-2.33-2.25H35.41a2.29,2.29,0,0,0-2.32,2.25v2.25H30.72a6.87,6.87,0,0,0-1.87-4.15,4,4,0,0,0-4.94-.46,3.67,3.67,0,0,0-1.35,4.61h-3.5a5.36,5.36,0,0,0-5.37-4.49,5.36,5.36,0,0,0-5.37,4.49h-7a.75.75,0,1,0,0,1.5h7a5.37,5.37,0,0,0,5.37,4.49,5.37,5.37,0,0,0,5.37-4.49h3.5a3.68,3.68,0,0,0-.34,1.49Zm13.19-6h5.43a.77.77,0,0,1,.78.75v6a.76.76,0,0,1-.78.75H35.41a.76.76,0,0,1-.77-.75v-6A.77.77,0,0,1,35.41,8.76ZM24.46,8.67a2.38,2.38,0,0,1,3.29,0,5.45,5.45,0,0,1,1.46,3.84,5.43,5.43,0,0,1-1.46,3.83,2.38,2.38,0,0,1-3.29,0,2.24,2.24,0,0,1-.14-3,.67.67,0,0,0,.13-.21,1.71,1.71,0,0,0,0-1.18.57.57,0,0,0-.13-.21,2.25,2.25,0,0,1,.14-3ZM13.69,16.25a3.81,3.81,0,0,1-3.88-3.74,3.88,3.88,0,0,1,7.76,0,3.81,3.81,0,0,1-3.88,3.74Z"/><path d="M26.68,13.2a2.75,2.75,0,0,1-.91,2.1.59.59,0,0,0,0,1,1.08,1.08,0,0,0,1.28,0A3.93,3.93,0,0,0,28.5,13.2a.94.94,0,0,0-1.82,0Z"/></symbol><symbol viewBox="0 0 50 70" id="icon-food-lollipop"><title>icon-food-lollipop</title> <g> <path d="M39.5,14C37.3,6,29,1.3,21,3.5C15.9,4.9,11.9,8.9,10.5,14C9.1,14.3,8,15.5,8,17v2c0,1.5,1.1,2.7,2.5,3
		c1.5,5,5.4,9,10.5,10.4V63c0,2.2,1.8,4,4,4s4-1.8,4-4V32.4C34.1,31,38,27,39.5,22c1.5-0.2,2.5-1.5,2.5-3v-2
		C42,15.5,40.9,14.3,39.5,14z M23,41.6l4,2v1.8l-4-2V41.6z M27,41.4l-4-2v-1.8l4,2V41.4z M27,63c0,1.1-0.9,2-2,2s-2-0.9-2-2V45.6
		l4,2V63z M27,33v4.4l-4-2V33H27z M40,19c0,0.6-0.4,1-1,1H27c-0.6,0-1,0.4-1,1s0.4,1,1,1h10.4c-2.2,6.8-9.5,10.6-16.4,8.4
		c-4.4-1.4-7.7-5.1-8.7-9.6c-0.1-0.5-0.5-0.8-1-0.8H11c-0.6,0-1-0.4-1-1v-2c0-0.6,0.4-1,1-1h11c0.6,0,1-0.4,1-1s-0.4-1-1-1h-9.4
		C14.8,7.2,22.2,3.4,29,5.6c4.4,1.4,7.7,5.1,8.7,9.6c0.1,0.5,0.5,0.8,1,0.8H39c0.6,0,1,0.4,1,1V19z"/> <path d="M34,14h-4c-0.6,0-1,0.4-1,1s0.4,1,1,1h4c0.6,0,1-0.4,1-1S34.6,14,34,14z"/> <path d="M21.3,20.3c-0.4,0.4-0.4,1,0,1.4c0.4,0.4,1,0.4,1.4,0c0.2-0.2,0.3-0.4,0.3-0.7c0-0.3-0.1-0.5-0.3-0.7
		C22.3,19.9,21.7,19.9,21.3,20.3z"/> <path d="M25,64c0.5,0,1-0.4,1-1l0,0c0-0.6-0.4-1-1-1s-1,0.4-1,1C24,63.5,24.4,64,25,64L25,64z"/> </g> </symbol><symbol viewBox="0 0 50 50" id="icon-food-meatballs"><title>icon-food-meatballs</title> <g> <path d="M48.2,18.2h-6.8c0-3.7-3-6.8-6.8-6.8c-1.2,0-2.3,0.3-3.4,0.9c-1.2-3.5-5-5.5-8.5-4.3c-2,0.7-3.6,2.3-4.3,4.3
		c-3.2-1.9-7.4-0.7-9.2,2.5c-0.6,1-0.9,2.2-0.9,3.4H1.6c-0.4,0-0.8,0.3-0.8,0.8c0,10.8,5.6,17.9,15.8,20.1v2.4
		c0,0.4,0.3,0.8,0.8,0.8h16.5c0.4,0,0.8-0.3,0.8-0.8v-2.4C43.9,36.5,49,29.4,49,19C48.9,18.6,48.6,18.2,48.2,18.2z M34.6,13
		c2.9,0,5.3,2.4,5.3,5.3h-9.4c0,0,0-0.1,0.1-0.1c0.1-0.2,0.2-0.4,0.3-0.6c0-0.1,0.1-0.1,0.1-0.2c0.1-0.3,0.2-0.5,0.3-0.8
		c0-0.1,0-0.1,0.1-0.2c0.1-0.2,0.1-0.5,0.2-0.7c0-0.1,0-0.2,0-0.2c0-0.3,0.1-0.6,0.1-0.9c0-0.2,0-0.3,0-0.5l0,0
		C32.5,13.3,33.6,13,34.6,13z M24.9,9.2c2.6,0,4.8,1.9,5.2,4.5c0,0.3,0.1,0.5,0.1,0.8c0,0.2,0,0.4,0,0.5s0,0.1,0,0.2
		c0,0.1,0,0.2-0.1,0.4c0,0.1,0,0.1-0.1,0.2c0,0.1-0.1,0.2-0.1,0.3c0,0.1-0.1,0.1-0.1,0.2s-0.1,0.2-0.1,0.3c0,0.1-0.1,0.1-0.1,0.2
		s-0.1,0.2-0.1,0.3c0,0.1-0.1,0.1-0.1,0.2c-0.1,0.1-0.1,0.2-0.2,0.3c0,0.1-0.1,0.1-0.1,0.2C29,17.9,29,18,28.9,18
		c-0.1,0.1-0.1,0.1-0.2,0.2l-0.1,0.1h-7.3l-0.1-0.1C21,18.1,21,18,20.9,17.9s-0.1-0.2-0.2-0.2c-0.1-0.1-0.1-0.1-0.2-0.2
		s-0.1-0.2-0.2-0.3c0-0.1-0.1-0.1-0.1-0.2c-0.1-0.1-0.1-0.2-0.1-0.3c0-0.1-0.1-0.1-0.1-0.2s-0.1-0.2-0.1-0.3c0-0.1-0.1-0.1-0.1-0.2
		c0-0.1-0.1-0.2-0.1-0.3s0-0.1-0.1-0.2c0-0.1,0-0.2-0.1-0.4c0-0.1,0-0.1,0-0.2c-0.3-2.9,1.8-5.5,4.7-5.8C24.5,9.2,24.7,9.2,24.9,9.2
		z M15.1,13c1.1,0,2.1,0.3,3,1l0,0c0,0.2,0,0.3,0,0.5c0,0.3,0,0.6,0.1,0.9c0,0.1,0,0.2,0,0.2c0,0.2,0.1,0.5,0.2,0.7
		c0,0.1,0,0.1,0.1,0.2c0.1,0.3,0.2,0.6,0.3,0.8c0,0.1,0.1,0.1,0.1,0.2c0.1,0.2,0.2,0.4,0.4,0.6c0,0,0,0.1,0.1,0.1H9.8
		C9.8,15.3,12.2,13,15.1,13z M33.7,37.8c-0.3,0.1-0.6,0.4-0.6,0.7v2.3h-15v-1.5h9c0.4,0,0.8-0.3,0.8-0.8s-0.3-0.8-0.8-0.8h-9.7
		c-8.5-1.7-13.6-7-14.8-15h22.3c0.4,0,0.8-0.3,0.8-0.8s-0.3-0.8-0.8-0.8H2.4c0-0.5-0.1-1-0.1-1.5h45.1
		C47.2,29.2,42.3,35.6,33.7,37.8z"/> <path d="M29.6,38c-0.3,0.3-0.3,0.8,0,1.1s0.8,0.3,1.1,0c0.3-0.3,0.3-0.8,0-1.1C30.4,37.7,29.9,37.7,29.6,38z"/> <path d="M29.9,22.5c0.3-0.3,0.3-0.8,0-1.1c-0.3-0.3-0.8-0.3-1.1,0c-0.3,0.3-0.3,0.8,0,1.1c0.1,0.1,0.3,0.2,0.5,0.2
		C29.6,22.7,29.8,22.7,29.9,22.5z"/> <path d="M36.1,21.2h-3c-0.4,0-0.8,0.3-0.8,0.8s0.3,0.8,0.8,0.8h3c0.4,0,0.8-0.3,0.8-0.8S36.6,21.2,36.1,21.2z"/> <path d="M34,16.1c0.7-0.2,1.5,0,2.1,0.5c0.3,0.3,0.8,0.2,1.1-0.1c0.3-0.3,0.2-0.8-0.1-1.1c-1-0.8-2.3-1.1-3.5-0.8
		c-0.4,0.1-0.7,0.5-0.6,0.9C33.2,15.9,33.6,16.2,34,16.1L34,16.1z"/> <path d="M15.1,14.5c-0.9,0-1.8,0.3-2.5,0.9c-0.3,0.3-0.4,0.7-0.1,1.1s0.7,0.4,1.1,0.1l0,0c0.4-0.4,0.9-0.6,1.5-0.6
		c0.4,0,0.8-0.3,0.8-0.8S15.5,14.5,15.1,14.5z"/> <path d="M22.3,16.7c0.1,0,0.3,0,0.4-0.1c0.4-0.2,0.5-0.7,0.3-1s-0.3-0.7-0.3-1.1c0-0.1,0-0.2,0-0.3c0.2-1.1,1.1-1.9,2.2-1.9
		c0.4,0,0.8-0.3,0.8-0.8c0-0.4-0.3-0.8-0.8-0.8c-1.9,0-3.4,1.4-3.7,3.2c0,0.2,0,0.4,0,0.6c0,0.7,0.2,1.3,0.5,1.9
		C21.8,16.6,22,16.7,22.3,16.7z"/> </g> </symbol><symbol viewBox="0 0 63.1 63.1" id="icon-food-noodles"><title>icon-food-noodles</title> <g> <path d="M61.9,6.8H50.3c-0.2,0-0.3,0-0.4,0.1l-1.7,0.9H36.6c-0.4-1.2-1.5-1.9-2.7-1.9h-9.7c-0.5,0-1,0.4-1,1s0.4,1,1,1h9.7
		c0.5,0,1,0.4,1,1v1H24.1c-0.5,0-1,0.4-1,1s0.4,1,1,1h10.7v1c0,0.5-0.4,1-1,1h-9.7c-0.5,0-1,0.4-1,1c0,0.5,0.4,1,1,1h9.7
		c1.2,0,2.3-0.8,2.7-1.9h11.6l1.7,0.9c0.1,0.1,0.3,0.1,0.4,0.1h11.6c0.5,0,1-0.4,1-1V7.7C62.9,7.2,62.5,6.8,61.9,6.8z M61,12.6H50.5
		l-1.7-0.9c-0.1-0.1-0.3-0.1-0.4-0.1H36.7V9.7h11.6c0.2,0,0.3,0,0.4-0.1l1.7-0.9H61V12.6z"/> <path d="M59,11.6c0.5,0,1-0.4,1-1c0-0.3-0.1-0.5-0.3-0.7c-0.4-0.4-1-0.4-1.4,0c-0.2,0.2-0.3,0.4-0.3,0.7
		C58.1,11.2,58.5,11.6,59,11.6z"/> <path d="M52.2,25.2h-2c-0.5-4.8-4.8-8.2-9.6-7.7c-1.4,0.2-2.7,0.6-3.9,1.4c-2.9-2-6.8-2-9.7,0c-4-2.7-9.4-1.6-12.1,2.4
		c-0.2,0.3-0.4,0.6-0.5,0.9v-9.1c0-2.4-2-4.4-4.4-4.4H3.8c-1.6,0-2.9,1.3-2.9,2.9s1.3,2.9,2.9,2.9c6.7,0,6.8,11.5,6.8,11.6
		c0,0,0,0,0,0.1c0,0,0,0,0,0.1l0.8,6.8l2.2,17.5l0.8,6.8c0.1,0.5,0.5,0.9,1,0.9h33c0.5,0,0.9-0.4,1-0.8l0.8-6.8l2.2-17.5l0.8-6.8
		c0.1-0.5-0.3-1-0.8-1.1C52.3,25.2,52.3,25.2,52.2,25.2z M50.5,32H13.2l-0.6-4.8h38.5L50.5,32z M23.5,23.7c-0.1,0.2-0.1,0.4-0.2,0.6
		c0,0.1,0,0.1,0,0.2c0,0.2-0.1,0.5-0.1,0.7h-3.8c0.4-1.2,1.5-1.9,2.7-1.9C22.7,23.3,23.1,23.4,23.5,23.7
		C23.5,23.6,23.5,23.7,23.5,23.7z M33.2,23.7c-0.1,0.2-0.1,0.4-0.2,0.6v0.1l0,0c0,0.2-0.1,0.5-0.1,0.8h-3.8c0.4-1.2,1.5-1.9,2.7-1.9
		C32.4,23.3,32.8,23.4,33.2,23.7C33.2,23.6,33.2,23.7,33.2,23.7L33.2,23.7z M38.8,25.2c0.5-1.5,2.2-2.3,3.7-1.8
		c0.8,0.3,1.5,0.9,1.8,1.8H38.8z M48.3,25.2h-2c-0.5-2.6-3.1-4.3-5.7-3.8c-1.9,0.4-3.4,1.9-3.8,3.8h-2l0,0c0-0.1,0-0.3,0.1-0.4l0,0
		c0-0.1,0.1-0.2,0.1-0.3c0-0.1,0.1-0.2,0.1-0.3c0-0.1,0.1-0.2,0.1-0.4c0-0.1,0.1-0.3,0.2-0.4c0-0.1,0.1-0.2,0.1-0.3
		c0.1-0.1,0.1-0.2,0.2-0.4c0-0.1,0.1-0.2,0.1-0.2c0.1-0.1,0.2-0.3,0.3-0.4c0-0.1,0.1-0.1,0.1-0.2c0.1-0.2,0.3-0.3,0.5-0.5l0.1-0.1
		c0.1-0.1,0.3-0.3,0.4-0.4c2.9-2.4,7.2-2,9.5,0.9C47.6,22.8,48.1,24,48.3,25.2z M35.2,20.2c-0.1,0.1-0.2,0.2-0.2,0.3l-0.1,0.1
		c-0.3,0.4-0.6,0.8-0.8,1.2c-0.7-0.3-1.4-0.5-2.1-0.5c-2.3,0-4.3,1.6-4.8,3.9h-2l0,0c0-0.1,0-0.3,0.1-0.4c0,0,0,0,0-0.1
		s0.1-0.2,0.1-0.3c0-0.1,0.1-0.2,0.1-0.3c0-0.1,0.1-0.3,0.1-0.4c0.1-0.1,0.1-0.3,0.2-0.4c0-0.1,0.1-0.2,0.1-0.3
		c0.1-0.1,0.1-0.2,0.2-0.4c0-0.1,0.1-0.2,0.2-0.2c0.1-0.1,0.2-0.3,0.3-0.4c0-0.1,0.1-0.1,0.1-0.2c0.1-0.2,0.3-0.3,0.5-0.5l0.1-0.1
		c0.1-0.1,0.3-0.3,0.4-0.4C29.7,19.2,32.7,18.9,35.2,20.2L35.2,20.2z M22.2,19.4c1.2,0,2.3,0.3,3.3,0.9c-0.1,0.1-0.2,0.2-0.2,0.3
		l-0.1,0.1c-0.3,0.4-0.6,0.8-0.8,1.2c-0.7-0.3-1.4-0.5-2.1-0.5c-2.3,0-4.3,1.6-4.8,3.9h-2C15.9,21.9,18.8,19.4,22.2,19.4z M3.8,12.6
		c-0.5,0-1-0.4-1-1s0.4-1,1-1h6.3c1.3,0,2.4,1.1,2.4,2.4v12.1l0,0C12.3,22.1,11.1,12.6,3.8,12.6z M47.5,56.2H16.3l-0.6-4.8h32.5
		L47.5,56.2z M48.4,49.5h-33l-1.5-11.6h5.3c0.5,0,1-0.4,1-1s-0.4-1-1-1h-5.6L13.4,34h36.8L48.4,49.5z"/> <path d="M23.2,37.8c0.5,0,1-0.4,1-1s-0.4-1-1-1c-0.5,0-1,0.4-1,1c0,0.3,0.1,0.5,0.3,0.7C22.7,37.7,22.9,37.8,23.2,37.8z"/> <path d="M39.6,47.5h3.9c0.5,0,1-0.4,1-1s-0.4-1-1-1h-3.9c-0.5,0-1,0.4-1,1S39.1,47.5,39.6,47.5z"/> <path d="M46.4,47.5c0.5,0,1-0.4,1-1l0,0c0-0.3-0.1-0.5-0.3-0.7c-0.4-0.4-1-0.4-1.4,0c-0.2,0.2-0.3,0.4-0.3,0.7
		C45.5,47.1,45.9,47.5,46.4,47.5L46.4,47.5z"/> <path d="M31.9,48.5c3.7,0,6.8-3,6.8-6.8s-3-6.8-6.8-6.8s-6.8,3-6.8,6.8C25.1,45.4,28.1,48.5,31.9,48.5z M31.9,36.8
		c2.7,0,4.8,2.2,4.8,4.8s-2.2,4.8-4.8,4.8s-4.9-2-4.9-4.7S29.2,36.8,31.9,36.8z"/> <path d="M31.9,44.6c0.5,0,1-0.4,1-1s-0.4-1-1-1c-0.5,0-1-0.4-1-1s0.4-1,1-1c0.5,0,1-0.4,1-1c0-0.5-0.4-1-1-1
		c-1.6,0-2.9,1.3-2.9,2.9C29,43.3,30.3,44.6,31.9,44.6z"/> </g> </symbol><symbol viewBox="0 0 50 50" id="icon-food-pizza"><title>icon-food-pizza</title><desc>Created with Sketch.</desc>  <g id="icon-food-pizza-icon-pizza"> <g id="icon-food-pizza-noun_Pizza_2835211"> <path id="icon-food-pizza-Shape" d="M49.9,38.7l-3.2-5L33.6,12.9l-5-7.9l-2.9-4.7C25.5,0.1,25.2,0,25,0l0,0c-0.3,0-0.5,0.1-0.7,0.4l-9.4,14.8
			l-4.2,6.7L3.3,33.6l-3.2,5c-0.2,0.3-0.2,0.7,0.1,1C6.8,46.2,15.7,49.9,25,50c9.3-0.1,18.2-3.8,24.8-10.4
			C50,39.4,50.1,39,49.9,38.7z M31.7,13.1c-0.1,0-0.3,0.1-0.4,0.1c-0.1,0-0.1,0-0.2,0c-0.2,0-0.4,0.1-0.6,0.1c-1.2,0-2.3-0.5-3-1.4
			c-0.7-0.9-1-2.1-0.8-3.2c0,0,0-0.1,0-0.1c0-0.2,0.1-0.4,0.2-0.6c0,0,0-0.1,0-0.1c0.1-0.2,0.2-0.4,0.3-0.5c0,0,0-0.1,0.1-0.1
			c0.1-0.2,0.3-0.4,0.4-0.5c0,0,0,0,0,0l4.1,6.4C31.8,13,31.7,13.1,31.7,13.1z M25,2.2l1.9,3c-0.1,0.1-0.3,0.3-0.4,0.4
			c0,0,0,0,0,0.1C26.3,5.9,26.2,6,26,6.1c0,0.1-0.1,0.1-0.1,0.2c-0.1,0.1-0.2,0.2-0.2,0.4c0,0.1-0.1,0.1-0.1,0.2
			c-0.1,0.1-0.1,0.2-0.2,0.4c0,0.1-0.1,0.2-0.1,0.2c0,0.1-0.1,0.2-0.1,0.4c0,0.1,0,0.2-0.1,0.2c0,0.1-0.1,0.3-0.1,0.4
			c0,0.1,0,0.1,0,0.2c0,0.2,0,0.4,0,0.6c0,3,2.4,5.5,5.5,5.5c0.2,0,0.5,0,0.7,0c0.1,0,0.1,0,0.2,0c0.2,0,0.3-0.1,0.5-0.1
			c0.1,0,0.1,0,0.2,0c0.2-0.1,0.4-0.1,0.6-0.2L45,33.9c-0.1,0.1-0.2,0.1-0.3,0.2c-0.2,0.1-0.4,0.3-0.5,0.4c-0.2,0.1-0.4,0.3-0.6,0.4
			c-0.2,0.1-0.4,0.2-0.5,0.4c-0.2,0.1-0.4,0.3-0.6,0.4c-0.2,0.1-0.4,0.2-0.6,0.3c-0.2,0.1-0.4,0.2-0.6,0.4c-0.2,0.1-0.4,0.2-0.6,0.3
			c-0.2,0.1-0.4,0.2-0.6,0.3c-0.2,0.1-0.4,0.2-0.6,0.3c-0.2,0.1-0.4,0.2-0.7,0.3c-0.2,0.1-0.4,0.2-0.6,0.3c-0.2,0.1-0.4,0.2-0.7,0.3
			c-0.2,0.1-0.4,0.2-0.6,0.2c-0.2,0.1-0.5,0.2-0.7,0.3c-0.2,0.1-0.4,0.1-0.6,0.2c-0.2,0.1-0.5,0.2-0.7,0.2c-0.2,0.1-0.4,0.1-0.6,0.2
			c-0.2,0.1-0.5,0.1-0.7,0.2c-0.2,0.1-0.4,0.1-0.6,0.2c-0.2,0.1-0.5,0.1-0.7,0.2c-0.2,0-0.4,0.1-0.6,0.1C31.5,40,31.2,40,31,40.1
			c-0.2,0-0.4,0.1-0.6,0.1c-0.3,0-0.5,0.1-0.8,0.1c-0.2,0-0.4,0.1-0.6,0.1c-0.3,0-0.5,0.1-0.8,0.1c-0.2,0-0.4,0-0.5,0.1
			c-0.3,0-0.6,0-0.9,0.1c-0.2,0-0.3,0-0.5,0c-0.5,0-0.9,0-1.4,0c-0.5,0-0.9,0-1.3,0c-0.2,0-0.3,0-0.5,0c-0.3,0-0.6,0-0.9-0.1
			c-0.2,0-0.4,0-0.5-0.1c-0.3,0-0.5-0.1-0.8-0.1c-0.2,0-0.4-0.1-0.6-0.1c-0.3,0-0.5-0.1-0.8-0.1c-0.2,0-0.4-0.1-0.6-0.1
			c-0.2,0-0.5-0.1-0.7-0.1c-0.2,0-0.4-0.1-0.6-0.1c-0.2-0.1-0.5-0.1-0.7-0.2c-0.2-0.1-0.4-0.1-0.6-0.2c-0.2-0.1-0.5-0.1-0.7-0.2
			c-0.2-0.1-0.4-0.1-0.6-0.2c-0.2-0.1-0.5-0.2-0.7-0.2c-0.2-0.1-0.4-0.1-0.6-0.2c-0.2-0.1-0.5-0.2-0.7-0.3c-0.2-0.1-0.4-0.2-0.6-0.2
			c-0.2-0.1-0.5-0.2-0.7-0.3c-0.2-0.1-0.4-0.2-0.6-0.3c-0.2-0.1-0.4-0.2-0.7-0.3c-0.2-0.1-0.4-0.2-0.6-0.3c-0.2-0.1-0.4-0.2-0.7-0.3
			c-0.2-0.1-0.4-0.2-0.6-0.3c-0.2-0.1-0.4-0.2-0.6-0.4c-0.2-0.1-0.4-0.2-0.5-0.3c-0.2-0.1-0.4-0.3-0.6-0.4c-0.2-0.1-0.4-0.2-0.5-0.4
			c-0.2-0.1-0.4-0.3-0.6-0.4c-0.2-0.1-0.4-0.3-0.5-0.4C5.2,34,5.1,33.9,5,33.9l6.4-10.1c0,0,0.1,0.1,0.1,0.1
			c0.1,0.1,0.1,0.1,0.2,0.2c0.1,0.1,0.2,0.2,0.4,0.3c0.1,0.1,0.1,0.1,0.2,0.2c0.1,0.1,0.3,0.2,0.5,0.3c0,0,0.1,0.1,0.1,0.1
			c0.2,0.1,0.4,0.2,0.6,0.3c0.1,0,0.1,0,0.2,0.1c0.2,0.1,0.3,0.1,0.5,0.2c0.1,0,0.2,0,0.2,0.1c0.2,0,0.3,0.1,0.5,0.1
			c0.1,0,0.1,0,0.2,0c0.2,0,0.5,0.1,0.7,0.1c1.6,0,3.1-0.7,4.2-1.9s1.5-2.8,1.2-4.4c0,0,0-0.1,0-0.1c0-0.3-0.1-0.5-0.2-0.8
			c0,0,0-0.1-0.1-0.1c-0.1-0.3-0.2-0.5-0.3-0.7c0,0,0,0,0-0.1c-0.1-0.2-0.3-0.4-0.4-0.6c0,0,0-0.1-0.1-0.1c-0.2-0.2-0.3-0.4-0.5-0.6
			l-0.1-0.1c-0.2-0.2-0.4-0.3-0.6-0.5c0,0-0.1,0-0.1-0.1c-0.2-0.1-0.4-0.3-0.7-0.4l-0.1,0c-0.2-0.1-0.5-0.2-0.8-0.3c0,0-0.1,0-0.1,0
			L25,2.2z M16,16.4c0.1,0,0.2,0,0.2,0c0.1,0,0.2,0,0.3,0.1c0.1,0,0.3,0.1,0.4,0.1c0.1,0,0.2,0.1,0.3,0.1c0.1,0.1,0.2,0.1,0.4,0.2
			c0.1,0.1,0.2,0.1,0.3,0.2c0.1,0.1,0.2,0.2,0.3,0.3c0.1,0.1,0.2,0.1,0.2,0.2c0.1,0.1,0.2,0.2,0.3,0.3c0.1,0.1,0.1,0.2,0.2,0.2
			c0.1,0.1,0.1,0.3,0.2,0.4c0,0.1,0.1,0.2,0.1,0.3c0.1,0.2,0.1,0.3,0.1,0.5c0,0.1,0.1,0.2,0.1,0.2c0.3,1.2-0.1,2.5-1,3.4
			c-0.9,0.9-2.1,1.4-3.4,1.2c-0.1,0-0.1,0-0.2,0c-0.1,0-0.2,0-0.3-0.1c-0.1,0-0.1,0-0.2-0.1c-0.1,0-0.2-0.1-0.3-0.1
			c-0.1,0-0.1-0.1-0.2-0.1c-0.1,0-0.2-0.1-0.3-0.1c-0.1,0-0.1-0.1-0.2-0.1c-0.1-0.1-0.2-0.1-0.2-0.2c-0.1,0-0.1-0.1-0.2-0.1
			c-0.1-0.1-0.1-0.1-0.2-0.2c-0.1-0.1-0.1-0.1-0.2-0.2c-0.1-0.1-0.1-0.2-0.2-0.2c0-0.1-0.1-0.1-0.1-0.2c0,0,0,0,0-0.1L16,16.4z
			 M25,48.4C16.3,48.4,8,45,1.8,39l2.4-3.8c0.1,0.1,0.2,0.1,0.3,0.2c0.2,0.1,0.4,0.3,0.6,0.4c0.2,0.1,0.4,0.3,0.6,0.4
			c0.2,0.1,0.4,0.3,0.6,0.4c0.2,0.1,0.4,0.3,0.6,0.4c0.2,0.1,0.4,0.2,0.6,0.3c0.2,0.1,0.4,0.3,0.7,0.4c0.2,0.1,0.4,0.2,0.6,0.3
			c0.2,0.1,0.4,0.2,0.7,0.3c0.2,0.1,0.4,0.2,0.6,0.3c0.2,0.1,0.5,0.2,0.7,0.3c0.2,0.1,0.4,0.2,0.6,0.3c0.2,0.1,0.5,0.2,0.7,0.3
			c0.2,0.1,0.4,0.2,0.6,0.3c0.2,0.1,0.5,0.2,0.7,0.3c0.2,0.1,0.4,0.2,0.6,0.2c0.2,0.1,0.5,0.2,0.7,0.2c0.2,0.1,0.4,0.1,0.6,0.2
			c0.2,0.1,0.5,0.1,0.7,0.2c0.2,0.1,0.4,0.1,0.6,0.2c0.3,0.1,0.5,0.1,0.8,0.2c0.2,0,0.4,0.1,0.6,0.1c0.3,0.1,0.5,0.1,0.8,0.2
			c0.2,0,0.4,0.1,0.6,0.1c0.3,0,0.5,0.1,0.8,0.1c0.2,0,0.4,0.1,0.6,0.1c0.3,0,0.6,0.1,0.8,0.1c0.2,0,0.4,0,0.6,0.1
			c0.3,0,0.6,0,0.9,0.1c0.2,0,0.3,0,0.5,0c0.5,0,0.9,0,1.4,0c0.5,0,0.9,0,1.4,0c0.2,0,0.3,0,0.5,0c0.3,0,0.6,0,0.9-0.1
			c0.2,0,0.4,0,0.6-0.1c0.3,0,0.6-0.1,0.8-0.1c0.2,0,0.4-0.1,0.6-0.1c0.3,0,0.5-0.1,0.8-0.1c0.2,0,0.4-0.1,0.6-0.1
			c0.3,0,0.5-0.1,0.8-0.2c0.2,0,0.4-0.1,0.6-0.1c0.3-0.1,0.5-0.1,0.8-0.2c0.2-0.1,0.4-0.1,0.6-0.2c0.2-0.1,0.5-0.1,0.7-0.2
			c0.2-0.1,0.4-0.1,0.6-0.2c0.2-0.1,0.5-0.2,0.7-0.2c0.2-0.1,0.4-0.1,0.6-0.2c0.2-0.1,0.5-0.2,0.7-0.3c0.2-0.1,0.4-0.2,0.6-0.2
			c0.2-0.1,0.5-0.2,0.7-0.3c0.2-0.1,0.4-0.2,0.6-0.3c0.2-0.1,0.5-0.2,0.7-0.3c0.2-0.1,0.4-0.2,0.6-0.3c0.2-0.1,0.5-0.2,0.7-0.4
			c0.2-0.1,0.4-0.2,0.6-0.3c0.2-0.1,0.4-0.2,0.7-0.4c0.2-0.1,0.4-0.2,0.6-0.3c0.2-0.1,0.4-0.3,0.6-0.4c0.2-0.1,0.4-0.2,0.6-0.4
			c0.2-0.1,0.4-0.3,0.6-0.4c0.2-0.1,0.4-0.3,0.5-0.4c0.1-0.1,0.2-0.1,0.3-0.2l2.4,3.8C42,45,33.7,48.4,25,48.4L25,48.4z"/> <path id="icon-food-pizza-Path" d="M44.7,38.2c-5.5,4.7-12.6,7.2-19.9,7.3c-0.4,0-0.8,0.3-0.8,0.8c0,0.4,0.4,0.8,0.8,0.8c7.7,0,15.1-2.7,20.9-7.6
			c0.3-0.3,0.4-0.8,0.1-1.1C45.5,37.9,45,37.9,44.7,38.2L44.7,38.2z"/> <path id="icon-food-pizza-Shape_1_" d="M29,30.5c0,3,2.5,5.5,5.5,5.5s5.5-2.5,5.5-5.5S37.5,25,34.5,25C31.5,25,29,27.5,29,30.5L29,30.5z
			 M34.5,26.6c2.2,0,3.9,1.8,3.9,3.9s-1.8,3.9-3.9,3.9s-3.9-1.8-3.9-3.9C30.6,28.3,32.3,26.6,34.5,26.6z"/> <path id="icon-food-pizza-Path_1_" d="M34.8,31.3c-0.4,0-0.8,0.4-0.8,0.8c0,0.5,0.3,0.8,0.8,0.8c1.2,0,2.2-1.1,2.2-2.5S36,28,34.8,28
			c-0.4,0-0.8,0.4-0.8,0.8s0.3,0.8,0.8,0.8s0.8,0.4,0.8,0.8S35.2,31.3,34.8,31.3z"/> <path id="icon-food-pizza-Path_2_" d="M15.8,19.7c0.4,0,0.8,0.4,0.8,0.8s-0.3,0.8-0.8,0.8S15,21.7,15,22.2s0.3,0.8,0.8,0.8c1.2,0,2.2-1.1,2.2-2.5
			S17,18,15.8,18c-0.4,0-0.8,0.4-0.8,0.8S15.3,19.7,15.8,19.7z"/> <path id="icon-food-pizza-Path_3_" d="M31,18c0.4,0,0.9,0,1.3-0.1c0.3,0,0.5-0.2,0.6-0.5c0.1-0.3,0.1-0.6-0.1-0.8s-0.5-0.3-0.8-0.3
			c-2,0.3-4-0.2-5.6-1.5s-2.6-3.1-2.8-5.1c0-0.5-0.5-0.8-0.9-0.7S22,9.5,22,9.9C22.5,14.5,26.4,18,31,18z"/> <path id="icon-food-pizza-Path_4_" d="M11.4,28c2.7,1.4,5.9,1.3,8.4-0.2s4.1-4.2,4.1-7.1c0-0.4-0.3-0.7-0.8-0.7c-0.4,0-0.8,0.3-0.8,0.7
			c0,2.4-1.3,4.6-3.4,5.8s-4.7,1.3-6.9,0.2c-0.2-0.1-0.5-0.1-0.8,0S11,27.1,11,27.4C11,27.7,11.2,27.9,11.4,28z"/> <path id="icon-food-pizza-Path_5_" d="M25.2,37.3c-5.7,0-11.3-1.8-16-5.2C9,32,8.7,32,8.4,32.1C8.2,32.2,8,32.5,8,32.8c0,0.3,0.1,0.6,0.4,0.7
			c5,3.5,10.9,5.4,16.9,5.5c0.4,0,0.8-0.4,0.8-0.8C26,37.7,25.7,37.3,25.2,37.3L25.2,37.3z"/> <path id="icon-food-pizza-Path_6_" d="M27.3,37.3c-0.3,0.3-0.4,0.8-0.2,1.2c0.2,0.4,0.7,0.6,1.1,0.5c0.4-0.1,0.7-0.5,0.7-1c0-0.3-0.1-0.5-0.3-0.7
			C28.3,36.9,27.7,36.9,27.3,37.3L27.3,37.3z"/> <path id="icon-food-pizza-Path_7_" d="M20.5,31.7c0.5,0,0.8,0.4,0.8,0.8s0.4,0.8,0.8,0.8S23,33,23,32.5c0-1.4-1.1-2.5-2.5-2.5S18,31.1,18,32.5
			c0,1.4,1.1,2.5,2.5,2.5c0.5,0,0.8-0.4,0.8-0.8c0-0.5-0.4-0.8-0.8-0.8s-0.8-0.4-0.8-0.8S20,31.7,20.5,31.7z"/> <path id="icon-food-pizza-Path_8_" d="M29.8,22.3c-0.4,0-0.8,0.4-0.8,0.8s0.3,0.8,0.8,0.8c1.2,0,2.2-1.1,2.2-2.5S31,19,29.8,19
			c-0.4,0-0.8,0.4-0.8,0.8s0.3,0.8,0.8,0.8s0.8,0.4,0.8,0.8S30.2,22.3,29.8,22.3z"/> <path id="icon-food-pizza-Path_9_" d="M25.3,24.3c-0.3,0.3-0.4,0.7-0.2,1.1c0.2,0.4,0.5,0.6,0.9,0.6c0.3,0,0.5-0.1,0.7-0.3S27,25.3,27,25
			c0-0.4-0.2-0.8-0.6-0.9C26,23.9,25.6,24,25.3,24.3z"/> <path id="icon-food-pizza-Path_10_" d="M20,15c0.5,0,0.9-0.3,1-0.8c0.1-0.5-0.2-0.9-0.6-1.1s-0.9,0-1.2,0.4c-0.3,0.4-0.2,0.9,0.1,1.3
			C19.5,14.9,19.7,15,20,15L20,15z"/> <path id="icon-food-pizza-Path_11_" d="M11,32c0.4,0,0.8-0.2,0.9-0.6c0.2-0.4,0.1-0.8-0.2-1.1c-0.4-0.4-1-0.4-1.4,0c-0.3,0.3-0.4,0.7-0.2,1.1
			C10.2,31.8,10.6,32,11,32z"/> <path id="icon-food-pizza-Path_12_" d="M13.3,32.3c-0.4,0.4-0.4,1,0,1.4s1,0.4,1.4,0s0.4-1,0-1.4C14.3,31.9,13.7,31.9,13.3,32.3L13.3,32.3z"/> <path id="icon-food-pizza-Path_13_" d="M35,24c0.6,0,1-0.4,1-1s-0.4-1-1-1s-1,0.4-1,1c0,0.3,0.1,0.5,0.3,0.7C34.5,23.9,34.7,24,35,24L35,24z"/> <path id="icon-food-pizza-Path_14_" d="M24,7c0.3,0,0.5-0.1,0.7-0.3C24.9,6.5,25,6.3,25,6c0-0.6-0.4-1-1-1c-0.6,0-1,0.4-1,1S23.4,7,24,7z"/> </g> </g> </symbol><symbol viewBox="0 0 50 50" id="icon-food-rice-bowl"><title>icon-food-rice-bowl</title> <g> <path d="M48.7,21.9h-0.8c-0.4-5-4.8-8.7-9.7-8.3c-4.4,0.4-7.9,3.9-8.3,8.3h-0.8c-0.4,0-0.8,0.3-0.8,0.8V25c0,3.4,1.6,6.6,4.4,8.6
		l-0.6,2.5c-0.1,0.4,0.1,0.8,0.6,0.9c0.1,0,0.1,0,0.2,0H45c0.4,0,0.8-0.3,0.8-0.8c0-0.1,0-0.1,0-0.2L45,33.5c2.8-2,4.4-5.2,4.4-8.6
		v-2.3C49.4,22.3,49.1,21.9,48.7,21.9z M38.9,15.1c3.9,0,7.1,2.9,7.5,6.8h-15C31.8,18.1,35,15.1,38.9,15.1z M47.9,24.9
		c0,3.1-1.6,6-4.2,7.6c-0.3,0.2-0.4,0.5-0.3,0.8l0.5,2.1H33.8l0.4-1.5h3.2c0.4,0,0.8-0.3,0.8-0.8c0-0.4-0.3-0.8-0.8-0.8h-3.5
		c-2.5-1.7-4.1-4.5-4.1-7.5v-1.5h18.1V24.9z"/> <path d="M39.9,32.7c-0.3,0.3-0.3,0.8,0,1.1s0.8,0.3,1.1,0s0.3-0.8,0-1.1C40.6,32.4,40.2,32.4,39.9,32.7z"/> <path d="M26.1,20.4H2c-0.4,0-0.8,0.3-0.8,0.8v9c0,2.5,2,4.5,4.5,4.5h1.5v1.5C7.3,36.6,7.6,37,8,37h12.1c0.4,0,0.8-0.3,0.8-0.8v-1.5
		h1.5c2.5,0,4.5-2,4.5-4.5v-9C26.8,20.8,26.5,20.4,26.1,20.4z M19.3,35.5H8.8v-0.8h10.5V35.5z M25.3,30.2c0,1.7-1.3,3-3,3H5.8
		c-1.7,0-3-1.3-3-3v-5.3h9c0.4,0,0.8-0.3,0.8-0.8s-0.3-0.8-0.8-0.8h-9v-1.5h22.6v8.4H25.3z"/> <path d="M36.4,17.6c-0.3-0.3-0.8-0.3-1.1,0c-0.1,0.1-0.2,0.3-0.2,0.5c0,0.4,0.3,0.8,0.8,0.7c0.4,0,0.8-0.3,0.7-0.8
		C36.6,18,36.6,17.8,36.4,17.6z"/> <path d="M38.7,16.1c-0.3-0.3-0.8-0.3-1.1,0c-0.3,0.3-0.3,0.8,0,1.1c0.3,0.3,0.8,0.3,1.1,0C39,16.9,39,16.4,38.7,16.1z"/> <path d="M36.9,19.9c-0.1,0.1-0.2,0.3-0.2,0.5s0.1,0.4,0.2,0.5c0.3,0.3,0.8,0.3,1.1,0s0.3-0.8,0-1.1C37.6,19.6,37.2,19.6,36.9,19.9z
		"/> <path d="M33.8,19.9c-0.1,0.1-0.2,0.3-0.2,0.5s0.1,0.4,0.2,0.5c0.3,0.3,0.8,0.3,1.1,0s0.3-0.8,0-1.1C34.6,19.6,34.1,19.6,33.8,19.9z
		"/> <path d="M39.1,18.4c-0.3,0.3-0.3,0.8,0,1.1c0.3,0.3,0.8,0.3,1.1,0s0.3-0.8,0-1.1C39.9,18.1,39.4,18.1,39.1,18.4z"/> <path d="M14.8,24.9h0.8c0.4,0,0.8-0.3,0.8-0.8s-0.3-0.8-0.8-0.8h-0.8c-0.4,0-0.8,0.3-0.8,0.8S14.4,24.9,14.8,24.9z"/> <path d="M9.5,15.9c0.4,0,0.8-0.3,0.8-0.8v-1.5c0-0.4-0.3-0.8-0.8-0.8c-0.4,0-0.8,0.3-0.8,0.8v1.5C8.8,15.6,9.1,15.9,9.5,15.9z"/> <path d="M14,18.2c0.4,0,0.8-0.3,0.8-0.8v-3c0-0.4-0.3-0.8-0.8-0.8c-0.4,0-0.8,0.3-0.8,0.8v3C13.3,17.8,13.6,18.2,14,18.2z"/> <path d="M18.6,15.9c0.4,0,0.8-0.3,0.8-0.8v-1.5c0-0.4-0.3-0.8-0.8-0.8c-0.4,0-0.8,0.3-0.8,0.8v1.5C17.8,15.6,18.1,15.9,18.6,15.9z"/> <path d="M14,12.9c0.2,0,0.4-0.1,0.5-0.2c0.3-0.3,0.3-0.8,0-1.1s-0.8-0.3-1.1,0s-0.3,0.8,0,1.1C13.7,12.8,13.8,12.9,14,12.9z"/> <path d="M9.5,18.2c0.4,0,0.7-0.3,0.7-0.8c0-0.4-0.3-0.7-0.8-0.7c-0.4,0-0.7,0.3-0.7,0.8c0,0.2,0.1,0.4,0.2,0.5
		C9.1,18.1,9.3,18.2,9.5,18.2z"/> <path d="M18.6,18.2c0.4,0,0.7-0.3,0.7-0.8c0-0.4-0.3-0.7-0.8-0.7c-0.4,0-0.7,0.3-0.7,0.8c0,0.2,0.1,0.4,0.2,0.5
		C18.2,18.1,18.4,18.2,18.6,18.2z"/> </g> </symbol><symbol viewBox="0 0 50 50" id="icon-food-taco"><title>icon-food-taco</title><path d="M25.1,19.62C12.66,19.62,7.43,22.9,6.44,31.3a.79.79,0,0,0,.68.88h.1A.78.78,0,0,0,8,31.49c.89-7.51,5.52-10.3,17.11-10.3a.79.79,0,0,0,0-1.57Z"/><path d="M39.23,33.75H36.09a.79.79,0,1,0,0,1.57h3.14a.79.79,0,0,0,0-1.57Z"/><path d="M41.81,34a.78.78,0,1,0,1.34.56.79.79,0,0,0-.23-.56.82.82,0,0,0-1.11,0Z"/><path d="M28.47,20.64a.75.75,0,0,0-.23.55.79.79,0,1,0,.23-.55Z"/><path d="M21.79,29.66a.79.79,0,0,0,1.12,1.12.79.79,0,1,0-1.12-1.12Z"/><path d="M18.26,24.56a.88.88,0,0,0-.23.56.85.85,0,0,0,.23.55.8.8,0,0,0,1.12,0,.79.79,0,0,0-1.12-1.11Z"/><path d="M14.34,30.05a.78.78,0,0,0,1.11,1.11.79.79,0,0,0,0-1.11A.82.82,0,0,0,14.34,30.05Z"/><path d="M18.26,34a.88.88,0,0,0-.23.56.79.79,0,0,0,.64.76.8.8,0,0,0,.88-.47.79.79,0,0,0-.3-.95A.78.78,0,0,0,18.26,34Z"/><path d="M10.41,34a.88.88,0,0,0-.23.56.79.79,0,0,0,.64.76.8.8,0,0,0,.88-.47A.79.79,0,0,0,10.41,34Z"/><path d="M14.67,25.67a.8.8,0,0,0-.86-1.3.8.8,0,0,0-.48.89.8.8,0,0,0,1.34.41Z"/><path d="M26.11,34a.8.8,0,0,0,0,1.11.78.78,0,0,0,1.11,0,.8.8,0,0,0,0-1.11A.79.79,0,0,0,26.11,34Z"/><path d="M31.6,34a.8.8,0,0,0,0,1.11A.78.78,0,0,0,32.71,34a.79.79,0,0,0-1.11,0Z"/><path d="M50.22,25.9a3.94,3.94,0,0,0-3.14-3.84V18.84a.8.8,0,0,0-.34-.65A.82.82,0,0,0,46,18.1l-3,1.14a4.72,4.72,0,0,0-4.55-3.54h-.18a4.29,4.29,0,0,0-7.6-1.39,4.22,4.22,0,0,0-3.62.55l-1.23-2.64-.06-.08a.6.6,0,0,0-.09-.13l-.12-.1s-.05-.05-.08-.06h-.05a.44.44,0,0,0-.15,0l-.15,0H25l-.15,0h-.05l-.08.06a.61.61,0,0,0-.23.22l-.06.07-1.61,3.1a4.3,4.3,0,0,0-3.48-1.95,4.24,4.24,0,0,0-3.56,1.76,4.46,4.46,0,0,0-1.25-.19,4.33,4.33,0,0,0-3.88,2.48L7.4,15.78a.78.78,0,0,0-1.14.7v5.85A3.71,3.71,0,0,0,4.69,22,3.92,3.92,0,0,0,.77,25.9a3.85,3.85,0,0,0,.47,1.85A3.84,3.84,0,0,0,0,30.61a3.93,3.93,0,0,0,3.14,3.85v3.22a.78.78,0,0,0,.79.78H46.29a.79.79,0,0,0,.79-.78V34.46a3.91,3.91,0,0,0,2.34-6.2A4,4,0,0,0,50.22,25.9Zm-4.71-3.84-.08,0-.15,0L45,22.2l-.14.06c-.09,0-.18.08-.27.12l-.14.07-.24.14-.15.1-.1.07H43.8a12.92,12.92,0,0,0-1.46-1.59l.3-.11h0L45.51,20ZM25.06,14.33l1,2.16H23.93ZM41.51,19.8l-.13.05-.47.18a16.52,16.52,0,0,0-4.35-2.11.24.24,0,0,1,.08-.06l.06-.05a3.22,3.22,0,0,1,1.74-.54A3.15,3.15,0,0,1,41.51,19.8ZM30.63,16a.79.79,0,0,0,1.05-.35,2.73,2.73,0,0,1,5,.38,4.7,4.7,0,0,0-1.91,1.39,35.85,35.85,0,0,0-7-.88l-.1-.21h0A2.65,2.65,0,0,1,30.63,16Zm-14.91.78a.78.78,0,0,0,1-.35,2.72,2.72,0,0,1,2.52-1.51,2.68,2.68,0,0,1,2.42,1.65,29,29,0,0,0-9.22,1.76L12,18.09a2.73,2.73,0,0,1,1.58-1.44,2.77,2.77,0,0,1,2.13.13Zm-7.89,1,2.85,1.43a2,2,0,0,0-.25.14l-.42.24a13.31,13.31,0,0,0-2.18,1.63ZM3.17,32.85a2.35,2.35,0,0,1-1.62-2.24,2.31,2.31,0,0,1,1.16-2,.79.79,0,0,0,.37-.55.76.76,0,0,0-.18-.63,2.35,2.35,0,0,1,1.79-3.87,2.29,2.29,0,0,1,1,.23A17.48,17.48,0,0,0,3.26,31.6c0,.34-.06.69-.08,1C3.18,32.71,3.17,32.78,3.17,32.85Zm42.34,4H4.69V34.54c0-.26,0-.51,0-.76h0a22.78,22.78,0,0,1,.73-5.45c0-.06,0-.11,0-.17.1-.34.2-.67.32-1,0-.05,0-.09,0-.13.11-.31.24-.6.37-.88s.15-.32.23-.48.1-.21.16-.31c2.47-4.58,7.47-6.83,15.59-7.24l.36,0c.82,0,1.68-.06,2.56-.06l1.36,0h.09c1.3,0,2.52.1,3.65.21C37.43,19,41.83,21.47,44,26.08l.09.19c.05.12.1.26.16.39s.15.4.23.6.06.2.1.31c.1.31.2.63.28.95v0a23,23,0,0,1,.66,5.22h0c0,.25,0,.5,0,.75Zm2.32-8a2.34,2.34,0,0,1,.82,1.76A2.38,2.38,0,0,1,47,32.85a2.64,2.64,0,0,1,0-.28c0-.31,0-.62-.07-.93a17.92,17.92,0,0,0-2.21-7.49h0a2.3,2.3,0,0,1,1.54-.59,2.34,2.34,0,0,1,1.54,4.12.77.77,0,0,0-.27.59.8.8,0,0,0,.27.59Z"/></symbol><symbol viewBox="0 0 16 16" id="icon-menu"><title>icon-menu</title><rect width="16" height="2.94"/><rect y="6.53" width="16" height="2.94"/><rect y="13.06" width="16" height="2.94"/></symbol><symbol viewBox="0 0 789 107" id="logo"><title>logo</title><path d="M108.07,68.77c5.09,3.45,12.29,6.14,18.91,6.14,4.9,0,9.12-1,9.12-4.7,0-2.88-1.82-3.84-5-5l-8.93-2.6c-9.88-2.87-15.36-7.77-15.36-17.56,0-11.71,9.89-18.14,22.27-18.14,8,0,13.64,1.72,18.53,4.41V45.54a30.77,30.77,0,0,0-17.85-5.86c-4.42,0-7.78,1.25-7.78,4.23,0,2.68,1.82,3.74,4.9,4.7l8.92,2.69c10.75,3.36,15.65,9,15.65,18,0,12.77-10.85,18.43-24.09,18.43-7.87,0-15-2.2-19.3-4.8Z"/><path d="M177.19,86.81h-15V55.33h-7.49V43.62h7.49V31.71h15V43.62h8.45V55.33h-8.45Z"/><path d="M220.2,57.92A13,13,0,0,0,214,56.58c-4.13,0-6.91,1.82-7.68,4.89V86.81H191.21V43.62h15.07v3.84a11.78,11.78,0,0,1,9.79-4.8,9.35,9.35,0,0,1,4.13.77Z"/><path d="M238,68.67c1.25,5.19,5.47,7.3,11,7.3a22.22,22.22,0,0,0,12.48-3.46V83.93c-3.36,2.5-8.64,3.84-14.88,3.84-13.83,0-23.23-8.35-23.23-22.27,0-13.53,9-22.84,20.92-22.84,13.44,0,20.26,8.73,20.26,21.6v4.41Zm.19-8.44h13c-.39-3.65-2.59-6.15-6.24-6.15C241.6,54.08,239.21,56.29,238.15,60.23Z"/><path d="M283.27,68.67c1.25,5.19,5.47,7.3,11,7.3a22.22,22.22,0,0,0,12.48-3.46V83.93c-3.36,2.5-8.64,3.84-14.88,3.84-13.83,0-23.23-8.35-23.23-22.27,0-13.53,9-22.84,20.92-22.84,13.44,0,20.26,8.73,20.26,21.6v4.41Zm.19-8.44h13c-.39-3.65-2.59-6.15-6.24-6.15C286.92,54.08,284.52,56.29,283.46,60.23Z"/><path d="M335.68,86.81h-15V55.33h-7.49V43.62h7.49V31.71h15V43.62h8.45V55.33h-8.45Z"/><path d="M350.08,86.81V27.88h41.47V41.22h-26.2V52.93h24.09V66H365.35V86.81Z"/><path d="M416.7,87.77c-13.05,0-22.08-9.21-22.08-22.55s9-22.56,22.08-22.56,22.08,9.21,22.08,22.56S429.85,87.77,416.7,87.77Zm0-32.73c-4.6,0-7.2,4.23-7.2,10.18s2.6,10.08,7.2,10.08,7.3-4.13,7.3-10.08S421.41,55,416.7,55Z"/><path d="M465,87.77c-13.05,0-22.08-9.21-22.08-22.55s9-22.56,22.08-22.56,22.08,9.21,22.08,22.56S478.14,87.77,465,87.77ZM465,55c-4.61,0-7.2,4.23-7.2,10.18S460.38,75.3,465,75.3s7.3-4.13,7.3-10.08S469.69,55,465,55Z"/><path d="M521.15,83.36a15,15,0,0,1-10.66,4.41C498,87.77,491.2,77.7,491.2,65.22S498,42.66,510.49,42.66a15,15,0,0,1,10.66,4.41V24.42h15.07V86.81H521.15Zm0-23.9a7.5,7.5,0,0,0-6.62-4c-5.19,0-8.26,4.22-8.26,9.79s3.07,9.69,8.26,9.69a7.24,7.24,0,0,0,6.62-4Z"/><path d="M572.6,26.92c6.24,0,11.24,1.53,15,4v15a22,22,0,0,0-13.73-4.8c-9.79,0-16,6.05-16,16.23s6.24,16.12,16,16.12a21.85,21.85,0,0,0,13.73-4.7v15c-3.74,2.5-8.74,4-15,4-18,0-30.23-12.09-30.23-30.42S554.65,26.92,572.6,26.92Z"/><path d="M602.65,40c-4.6,0-8.54-3.17-8.54-8.06s3.94-8.16,8.54-8.16,8.55,3.17,8.55,8.16S607.26,40,602.65,40Zm7.49,46.84H595.07V43.62h15.07Z"/><path d="M638.27,86.81h-15V55.33H615.8V43.62h7.49V31.71h15V43.62h8.44V55.33h-8.44Z"/><path d="M658.71,102.08l6.34-16.32L648.92,43.62h15.65l8.26,24.57,8.06-24.57h15l-22.27,58.46Z"/><polygon class="a" points="781 57.96 716.37 57.96 716.37 25.24 659.12 25.24 659.12 6.08 499.08 6.08 499.08 25.24 412.62 25.24 412.62 6.08 302.37 6.08 302.37 25.24 207.19 25.24 207.19 6.08 85.14 6.08 85.14 57.96 20 57.96 20 53.96 81.14 53.96 81.14 2.08 211.19 2.08 211.19 21.24 298.37 21.24 298.37 2.08 416.62 2.08 416.62 21.24 495.08 21.24 495.08 2.08 663.12 2.08 663.12 21.24 720.37 21.24 720.37 53.96 781 53.96 781 57.96"/></symbol><symbol viewBox="0 0 24 24" id="share-facebook"><title>share-facebook</title> <path d="M12,0C5.373,0,0,5.373,0,12c0,6.016,4.432,10.984,10.206,11.852V15.18H7.237v-3.154h2.969V9.927c0-3.475,1.693-5,4.581-5 c1.383,0,2.115,0.103,2.461,0.149v2.753h-1.97c-1.226,0-1.654,1.163-1.654,2.473v1.724h3.593L16.73,15.18h-3.106v8.697 C19.481,23.083,24,18.075,24,12C24,5.373,18.627,0,12,0z"/></symbol><symbol viewBox="0 0 30 30" id="share-instagram"><title>share-instagram</title> <path d="M 9.9980469 3 C 6.1390469 3 3 6.1419531 3 10.001953 L 3 20.001953 C 3 23.860953 6.1419531 27 10.001953 27 L 20.001953 27 C 23.860953 27 27 23.858047 27 19.998047 L 27 9.9980469 C 27 6.1390469 23.858047 3 19.998047 3 L 9.9980469 3 z M 22 7 C 22.552 7 23 7.448 23 8 C 23 8.552 22.552 9 22 9 C 21.448 9 21 8.552 21 8 C 21 7.448 21.448 7 22 7 z M 15 9 C 18.309 9 21 11.691 21 15 C 21 18.309 18.309 21 15 21 C 11.691 21 9 18.309 9 15 C 9 11.691 11.691 9 15 9 z M 15 11 A 4 4 0 0 0 11 15 A 4 4 0 0 0 15 19 A 4 4 0 0 0 19 15 A 4 4 0 0 0 15 11 z"/></symbol><symbol viewBox="0 0 24 24" id="share-twitter"><title>share-twitter</title><path d="M 24 4.300781 C 23.101563 4.699219 22.199219 5 21.199219 5.101563 C 22.199219 4.5 23 3.5 23.398438 2.398438 C 22.398438 3 21.398438 3.398438 20.300781 3.601563 C 19.300781 2.601563 18 2 16.601563 2 C 13.898438 2 11.699219 4.199219 11.699219 6.898438 C 11.699219 7.300781 11.699219 7.699219 11.800781 8 C 7.699219 7.800781 4.101563 5.898438 1.699219 2.898438 C 1.199219 3.601563 1 4.5 1 5.398438 C 1 7.101563 1.898438 8.601563 3.199219 9.5 C 2.398438 9.398438 1.601563 9.199219 1 8.898438 C 1 8.898438 1 8.898438 1 9 C 1 11.398438 2.699219 13.398438 4.898438 13.800781 C 4.5 13.898438 4.101563 14 3.601563 14 C 3.300781 14 3 14 2.699219 13.898438 C 3.300781 15.898438 5.101563 17.300781 7.300781 17.300781 C 5.601563 18.601563 3.5 19.398438 1.199219 19.398438 C 0.800781 19.398438 0.398438 19.398438 0 19.300781 C 2.199219 20.699219 4.800781 21.5 7.5 21.5 C 16.601563 21.5 21.5 14 21.5 7.5 C 21.5 7.300781 21.5 7.101563 21.5 6.898438 C 22.5 6.199219 23.300781 5.300781 24 4.300781"/></symbol></svg>