<svg xmlns="http://www.w3.org/2000/svg"><symbol viewBox="0 0 64 35.5" id="arrow-up"><title>arrow-up</title> <path d="M33.4,4.6c-0.8-0.8-2-0.8-2.8,0c0,0,0,0,0,0l-24,24c-0.8,0.8-0.8,2,0,2.8c0.8,0.8,2,0.8,2.8,0L32,8.8l22.6,22.6
	c0.8,0.8,2,0.8,2.8,0c0.8-0.8,0.8-2,0-2.8L33.4,4.6z"/> </symbol><symbol viewBox="0 0 22 24" id="hand-point-down"><title>hand-point-down</title> <path fill-rule="evenodd" d="M8.85,24 C6.73598437,24 4.95,22.2140156 4.95,20.1 L4.95,16.0605 C4.62604688,16.1243438 4.27621875,16.1625 3.9,16.1625 C1.65403125,16.1625 0,14.5185 0,11.85 C0,9.72590625 2.27517187,9.17803125 3.69304687,8.30123437 C4.27485938,7.93865625 4.78598437,7.50459375 5.25178125,7.08946875 L5.258625,7.08332812 L5.2655625,7.07728125 C6.08470312,6.35910938 6.375,5.98889062 6.375,5.66245313 L6.375,5.536875 C6.142875,5.26748438 6,4.902375 6,4.5 L6,1.5 C6,0.671578125 6.60440625,0 7.35,0 L18.15,0 C18.8955937,0 19.5,0.671578125 19.5,1.5 L19.5,4.50004687 C19.5,4.90242187 19.357125,5.26753125 19.125,5.53692187 L19.125,5.6625 C19.125,7.00725 21,8.80954688 21,11.625 L21,12.6233906 C21,15.5550469 19.1879062,17.2546875 16.7275781,17.3080781 C15.8925938,17.8931719 14.8157813,18.1748906 13.78425,18.057375 C13.4565299,18.2243313 13.1090279,18.3492109 12.75,18.4290469 L12.75,20.1 C12.75,22.2297656 10.98825,24 8.85,24 Z M8.85,21.75 C9.73945312,21.75 10.5,20.9894531 10.5,20.1 L10.5,15.8332031 C11.1876094,16.4349375 12.5074219,16.5089063 13.3617187,15.6011719 C14.282625,16.1273906 15.5003438,15.68025 15.8753906,14.9953125 C17.7095156,15.3010781 18.75,14.5229531 18.75,12.6233906 L18.75,11.625 C18.75,9.49260938 17.0665781,8.00578125 16.8901406,6 L8.60489063,6 C8.466,7.18307813 7.61010938,8.01403125 6.74882813,8.76914063 C6.15585938,9.29765625 5.56289063,9.7875 4.8796875,10.2128437 C3.783375,10.8916406 2.25,11.4377812 2.25,11.85 C2.25,12.9457031 2.6625,13.9125 3.9,13.9125 C5.55,13.9125 6.38789063,12.675 7.2,12.675 L7.2,20.1 C7.2,20.9636719 7.9734375,21.75 8.85,21.75 Z M15.375,3 C15.375,3.62132812 15.8786719,4.125 16.5,4.125 C17.1213281,4.125 17.625,3.62132812 17.625,3 C17.625,2.37867187 17.1213281,1.875 16.5,1.875 C15.8786719,1.875 15.375,2.37867187 15.375,3 Z" transform="translate(.5)"/> </symbol><symbol viewBox="0 0 157 36" id="logo"><title>Group</title><desc>Created with Sketch.</desc> <!-- Generator: Sketch 63.1 (92452) - https://sketch.com -->   <g id="logo-Symbols" stroke="none" stroke-width="1" fill="none" fill-rule="evenodd"> <g id="logo-1.2-Logo-horizontal"> <g id="logo-Group"> <text id="logo-StreetFoodCity" font-family="Archivo-Bold, Archivo" font-size="19" font-weight="bold" letter-spacing="0.07125" fill="#000000"> <tspan x="10.38975" y="25">StreetFoodCity</tspan> </text> <rect id="logo-Rectangle" stroke="#000000" stroke-width="3" x="1.5" y="1.5" width="154" height="33"/> </g> </g> </g> </symbol><symbol viewBox="0 0 138 36" id="logo2"><title>1.2 Logo horizontal</title><desc>Created with Sketch.</desc> <!-- Generator: Sketch 63.1 (92452) - https://sketch.com -->   <g id="logo2-1.2-Logo-horizontal" stroke="none" stroke-width="1" fill="none" fill-rule="evenodd"> <g id="logo2-Group"> <text id="logo2-StreetFoodCity" font-family="Metric-BoldTest, Metric Test" font-size="19" font-weight="bold" letter-spacing="0.07125" fill="#000000"> <tspan x="10.47175" y="23">StreetFoodCity</tspan> </text> <rect id="logo2-Rectangle" stroke="#000000" stroke-width="3" x="1.5" y="1.5" width="135" height="33"/> </g> </g> </symbol><symbol viewBox="0 0 24 24" id="share-facebook"><title>share-facebook</title> <path d="M12,0C5.373,0,0,5.373,0,12c0,6.016,4.432,10.984,10.206,11.852V15.18H7.237v-3.154h2.969V9.927c0-3.475,1.693-5,4.581-5 c1.383,0,2.115,0.103,2.461,0.149v2.753h-1.97c-1.226,0-1.654,1.163-1.654,2.473v1.724h3.593L16.73,15.18h-3.106v8.697 C19.481,23.083,24,18.075,24,12C24,5.373,18.627,0,12,0z"/></symbol><symbol viewBox="0 0 30 30" id="share-instagram"><title>share-instagram</title> <path d="M 9.9980469 3 C 6.1390469 3 3 6.1419531 3 10.001953 L 3 20.001953 C 3 23.860953 6.1419531 27 10.001953 27 L 20.001953 27 C 23.860953 27 27 23.858047 27 19.998047 L 27 9.9980469 C 27 6.1390469 23.858047 3 19.998047 3 L 9.9980469 3 z M 22 7 C 22.552 7 23 7.448 23 8 C 23 8.552 22.552 9 22 9 C 21.448 9 21 8.552 21 8 C 21 7.448 21.448 7 22 7 z M 15 9 C 18.309 9 21 11.691 21 15 C 21 18.309 18.309 21 15 21 C 11.691 21 9 18.309 9 15 C 9 11.691 11.691 9 15 9 z M 15 11 A 4 4 0 0 0 11 15 A 4 4 0 0 0 15 19 A 4 4 0 0 0 19 15 A 4 4 0 0 0 15 11 z"/></symbol><symbol viewBox="0 0 24 24" id="share-twitter"><title>share-twitter</title><path d="M 24 4.300781 C 23.101563 4.699219 22.199219 5 21.199219 5.101563 C 22.199219 4.5 23 3.5 23.398438 2.398438 C 22.398438 3 21.398438 3.398438 20.300781 3.601563 C 19.300781 2.601563 18 2 16.601563 2 C 13.898438 2 11.699219 4.199219 11.699219 6.898438 C 11.699219 7.300781 11.699219 7.699219 11.800781 8 C 7.699219 7.800781 4.101563 5.898438 1.699219 2.898438 C 1.199219 3.601563 1 4.5 1 5.398438 C 1 7.101563 1.898438 8.601563 3.199219 9.5 C 2.398438 9.398438 1.601563 9.199219 1 8.898438 C 1 8.898438 1 8.898438 1 9 C 1 11.398438 2.699219 13.398438 4.898438 13.800781 C 4.5 13.898438 4.101563 14 3.601563 14 C 3.300781 14 3 14 2.699219 13.898438 C 3.300781 15.898438 5.101563 17.300781 7.300781 17.300781 C 5.601563 18.601563 3.5 19.398438 1.199219 19.398438 C 0.800781 19.398438 0.398438 19.398438 0 19.300781 C 2.199219 20.699219 4.800781 21.5 7.5 21.5 C 16.601563 21.5 21.5 14 21.5 7.5 C 21.5 7.300781 21.5 7.101563 21.5 6.898438 C 22.5 6.199219 23.300781 5.300781 24 4.300781"/></symbol></svg>