<svg xmlns="http://www.w3.org/2000/svg"><symbol viewBox="0 0 64 35.5" id="arrow-up"><title>arrow-up</title> <path d="M33.4,4.6c-0.8-0.8-2-0.8-2.8,0c0,0,0,0,0,0l-24,24c-0.8,0.8-0.8,2,0,2.8c0.8,0.8,2,0.8,2.8,0L32,8.8l22.6,22.6
	c0.8,0.8,2,0.8,2.8,0c0.8-0.8,0.8-2,0-2.8L33.4,4.6z"/> </symbol><symbol viewBox="0 0 22 24" id="hand-point-down"><title>hand-point-down</title> <path fill-rule="evenodd" d="M8.85,24 C6.73598437,24 4.95,22.2140156 4.95,20.1 L4.95,16.0605 C4.62604688,16.1243438 4.27621875,16.1625 3.9,16.1625 C1.65403125,16.1625 0,14.5185 0,11.85 C0,9.72590625 2.27517187,9.17803125 3.69304687,8.30123437 C4.27485938,7.93865625 4.78598437,7.50459375 5.25178125,7.08946875 L5.258625,7.08332812 L5.2655625,7.07728125 C6.08470312,6.35910938 6.375,5.98889062 6.375,5.66245313 L6.375,5.536875 C6.142875,5.26748438 6,4.902375 6,4.5 L6,1.5 C6,0.671578125 6.60440625,0 7.35,0 L18.15,0 C18.8955937,0 19.5,0.671578125 19.5,1.5 L19.5,4.50004687 C19.5,4.90242187 19.357125,5.26753125 19.125,5.53692187 L19.125,5.6625 C19.125,7.00725 21,8.80954688 21,11.625 L21,12.6233906 C21,15.5550469 19.1879062,17.2546875 16.7275781,17.3080781 C15.8925938,17.8931719 14.8157813,18.1748906 13.78425,18.057375 C13.4565299,18.2243313 13.1090279,18.3492109 12.75,18.4290469 L12.75,20.1 C12.75,22.2297656 10.98825,24 8.85,24 Z M8.85,21.75 C9.73945312,21.75 10.5,20.9894531 10.5,20.1 L10.5,15.8332031 C11.1876094,16.4349375 12.5074219,16.5089063 13.3617187,15.6011719 C14.282625,16.1273906 15.5003438,15.68025 15.8753906,14.9953125 C17.7095156,15.3010781 18.75,14.5229531 18.75,12.6233906 L18.75,11.625 C18.75,9.49260938 17.0665781,8.00578125 16.8901406,6 L8.60489063,6 C8.466,7.18307813 7.61010938,8.01403125 6.74882813,8.76914063 C6.15585938,9.29765625 5.56289063,9.7875 4.8796875,10.2128437 C3.783375,10.8916406 2.25,11.4377812 2.25,11.85 C2.25,12.9457031 2.6625,13.9125 3.9,13.9125 C5.55,13.9125 6.38789063,12.675 7.2,12.675 L7.2,20.1 C7.2,20.9636719 7.9734375,21.75 8.85,21.75 Z M15.375,3 C15.375,3.62132812 15.8786719,4.125 16.5,4.125 C17.1213281,4.125 17.625,3.62132812 17.625,3 C17.625,2.37867187 17.1213281,1.875 16.5,1.875 C15.8786719,1.875 15.375,2.37867187 15.375,3 Z" transform="translate(.5)"/> </symbol><symbol viewBox="0 0 138 36" id="logo2"><title>1.2 Logo horizontal</title><desc>Created with Sketch.</desc> <!-- Generator: Sketch 63.1 (92452) - https://sketch.com -->   <g id="logo2-1.2-Logo-horizontal" stroke="none" stroke-width="1" fill="none" fill-rule="evenodd"> <g id="logo2-Group"> <text id="logo2-StreetFoodCity" font-family="Metric-BoldTest, Metric Test" font-size="19" font-weight="bold" letter-spacing="0.07125" fill="#000000"> <tspan x="10.47175" y="23">StreetFoodCity</tspan> </text> <rect id="logo2-Rectangle" stroke="#000000" stroke-width="3" x="1.5" y="1.5" width="135" height="33"/> </g> </g> </symbol><symbol viewBox="0 0 226 34" id="logo3-reverse"><title>1.2.3 logo</title><desc>Created with Sketch.</desc> <!-- Generator: Sketch 63.1 (92452) - https://sketch.com -->   <g id="logo3-reverse-1.2.3-logo" stroke="none" stroke-width="1" fill="none" fill-rule="evenodd"> <g id="logo3-reverse-Group" transform="translate(0.000000, 3.000000)"> <path d="M33.1489893,26.4186719 C37.0129893,26.4186719 40.1769893,24.7666719 40.1769893,21.0426719 C40.1769893,18.4106719 38.7489893,16.7586719 35.6129893,15.7786719 L33.0089893,14.9946719 C32.1129893,14.7146719 31.5809893,14.4066719 31.5809893,13.6226719 C31.5809893,12.7546719 32.5609893,12.3906719 33.8489893,12.3906719 C35.8089893,12.3906719 37.5169893,13.0346719 39.0569893,14.0986719 L39.0569893,9.95467188 C37.6289893,9.17067188 35.9769893,8.66667188 33.6529893,8.66667188 C30.0409893,8.66667188 27.1569893,10.5426719 27.1569893,13.9586719 C27.1569893,16.8146719 28.7529893,18.2426719 31.6369893,19.0826719 L34.2409893,19.8386719 C35.1649893,20.1746719 35.6969893,20.4546719 35.6969893,21.2946719 C35.6969893,22.3586719 34.4649893,22.6666719 33.0369893,22.6666719 C31.1049893,22.6666719 29.0049893,21.8826719 27.5209893,20.8746719 L27.5209893,25.0186719 C28.7809893,25.7746719 30.8529893,26.4186719 33.1489893,26.4186719 Z M47.7859893,26.1386719 L47.7859893,16.9546719 L50.2499893,16.9546719 L50.2499893,13.5386719 L47.7859893,13.5386719 L47.7859893,10.0666719 L43.4179893,10.0666719 L43.4179893,13.5386719 L41.2339893,13.5386719 L41.2339893,16.9546719 L43.4179893,16.9546719 L43.4179893,26.1386719 L47.7859893,26.1386719 Z M56.3749893,26.1386719 L56.3749893,18.7466719 C56.5989893,17.8506719 57.4109893,17.3186719 58.6149893,17.3186719 C59.3149893,17.3186719 59.9029893,17.4306719 60.4349893,17.7106719 L60.4349893,13.4826719 C60.2389893,13.3706719 59.7909893,13.2586719 59.2309893,13.2586719 C57.9709893,13.2586719 56.9909893,13.8186719 56.3749893,14.6586719 L56.3749893,13.5386719 L51.9789893,13.5386719 L51.9789893,26.1386719 L56.3749893,26.1386719 Z M68.2399893,26.4186719 C70.0599893,26.4186719 71.5999893,26.0266719 72.5799893,25.2986719 L72.5799893,21.9666719 C71.3199893,22.7226719 70.2839893,22.9746719 68.9399893,22.9746719 C67.3159893,22.9746719 66.0839893,22.3586719 65.7199893,20.8466719 L73.4759893,20.8466719 L73.4759893,19.5586719 C73.4759893,15.8066719 71.4879893,13.2586719 67.5679893,13.2586719 C64.0959893,13.2586719 61.4639893,15.9746719 61.4639893,19.9226719 C61.4639893,23.9826719 64.2079893,26.4186719 68.2399893,26.4186719 Z M69.5559893,18.3826719 L65.7759893,18.3826719 C66.0839893,17.2346719 66.7839893,16.5906719 67.7359893,16.5906719 C68.7999893,16.5906719 69.4439893,17.3186719 69.5559893,18.3826719 Z M81.5609893,26.4186719 C83.3809893,26.4186719 84.9209893,26.0266719 85.9009893,25.2986719 L85.9009893,21.9666719 C84.6409893,22.7226719 83.6049893,22.9746719 82.2609893,22.9746719 C80.6369893,22.9746719 79.4049893,22.3586719 79.0409893,20.8466719 L86.7969893,20.8466719 L86.7969893,19.5586719 C86.7969893,15.8066719 84.8089893,13.2586719 80.8889893,13.2586719 C77.4169893,13.2586719 74.7849893,15.9746719 74.7849893,19.9226719 C74.7849893,23.9826719 77.5289893,26.4186719 81.5609893,26.4186719 Z M82.8769893,18.3826719 L79.0969893,18.3826719 C79.4049893,17.2346719 80.1049893,16.5906719 81.0569893,16.5906719 C82.1209893,16.5906719 82.7649893,17.3186719 82.8769893,18.3826719 Z M94.4339893,26.1386719 L94.4339893,16.9546719 L96.8979893,16.9546719 L96.8979893,13.5386719 L94.4339893,13.5386719 L94.4339893,10.0666719 L90.0659893,10.0666719 L90.0659893,13.5386719 L87.8819893,13.5386719 L87.8819893,16.9546719 L90.0659893,16.9546719 L90.0659893,26.1386719 L94.4339893,26.1386719 Z M103.190989,26.1386719 L103.190989,20.0626719 L110.218989,20.0626719 L110.218989,16.2546719 L103.190989,16.2546719 L103.190989,12.8386719 L110.834989,12.8386719 L110.834989,8.94667188 L98.7389893,8.94667188 L98.7389893,26.1386719 L103.190989,26.1386719 Z M118.275989,26.4186719 C122.111989,26.4186719 124.715989,23.7306719 124.715989,19.8386719 C124.715989,15.9466719 122.111989,13.2586719 118.275989,13.2586719 C114.467989,13.2586719 111.835989,15.9466719 111.835989,19.8386719 C111.835989,23.7306719 114.467989,26.4186719 118.275989,26.4186719 Z M118.275989,22.7786719 C116.931989,22.7786719 116.175989,21.5746719 116.175989,19.8386719 C116.175989,18.1026719 116.931989,16.8706719 118.275989,16.8706719 C119.647989,16.8706719 120.403989,18.1026719 120.403989,19.8386719 C120.403989,21.5746719 119.647989,22.7786719 118.275989,22.7786719 Z M132.464989,26.4186719 C136.300989,26.4186719 138.904989,23.7306719 138.904989,19.8386719 C138.904989,15.9466719 136.300989,13.2586719 132.464989,13.2586719 C128.656989,13.2586719 126.024989,15.9466719 126.024989,19.8386719 C126.024989,23.7306719 128.656989,26.4186719 132.464989,26.4186719 Z M132.464989,22.7786719 C131.120989,22.7786719 130.364989,21.5746719 130.364989,19.8386719 C130.364989,18.1026719 131.120989,16.8706719 132.464989,16.8706719 C133.836989,16.8706719 134.592989,18.1026719 134.592989,19.8386719 C134.592989,21.5746719 133.836989,22.7786719 132.464989,22.7786719 Z M145.841989,26.4186719 C147.129989,26.4186719 148.361989,25.8026719 148.949989,25.1306719 L148.949989,26.1386719 L153.345989,26.1386719 L153.345989,7.93867188 L148.949989,7.93867188 L148.949989,14.5466719 C148.361989,13.8746719 147.129989,13.2586719 145.841989,13.2586719 C142.201989,13.2586719 140.213989,16.1986719 140.213989,19.8386719 C140.213989,23.4786719 142.201989,26.4186719 145.841989,26.4186719 Z M147.017989,22.6666719 C145.505989,22.6666719 144.609989,21.4626719 144.609989,19.8386719 C144.609989,18.2146719 145.505989,16.9826719 147.017989,16.9826719 C147.857989,16.9826719 148.613989,17.4866719 148.949989,18.1586719 L148.949989,21.4906719 C148.613989,22.1906719 147.885989,22.6666719 147.017989,22.6666719 Z M164.062989,26.4186719 C165.882989,26.4186719 167.338989,25.9706719 168.430989,25.2426719 L168.430989,20.8746719 C167.198989,21.8266719 165.854989,22.2466719 164.426989,22.2466719 C161.570989,22.2466719 159.750989,20.4826719 159.750989,17.5426719 C159.750989,14.5746719 161.570989,12.8106719 164.426989,12.8106719 C165.854989,12.8106719 167.198989,13.2586719 168.430989,14.2106719 L168.430989,9.84267188 C167.338989,9.11467188 165.882989,8.66667188 164.062989,8.66667188 C158.826989,8.66667188 155.242989,12.1946719 155.242989,17.5426719 C155.242989,22.8906719 158.826989,26.4186719 164.062989,26.4186719 Z M172.931989,12.4746719 C174.275989,12.4746719 175.423989,11.5506719 175.423989,10.1226719 C175.423989,8.66667188 174.275989,7.74267188 172.931989,7.74267188 C171.587989,7.74267188 170.439989,8.66667188 170.439989,10.1226719 C170.439989,11.5506719 171.587989,12.4746719 172.931989,12.4746719 Z M175.115989,26.1386719 L175.115989,13.5386719 L170.719989,13.5386719 L170.719989,26.1386719 L175.115989,26.1386719 Z M183.424989,26.1386719 L183.424989,16.9546719 L185.888989,16.9546719 L185.888989,13.5386719 L183.424989,13.5386719 L183.424989,10.0666719 L179.056989,10.0666719 L179.056989,13.5386719 L176.872989,13.5386719 L176.872989,16.9546719 L179.056989,16.9546719 L179.056989,26.1386719 L183.424989,26.1386719 Z M193.833989,30.5906719 L200.329989,13.5386719 L195.961989,13.5386719 L193.609989,20.7066719 L191.201989,13.5386719 L186.637989,13.5386719 L191.341989,25.8306719 L189.493989,30.5906719 L193.833989,30.5906719 Z" id="logo3-reverse-StreetFoodCity" fill="#FFFFFF" fill-rule="nonzero"/> <polyline id="logo3-reverse-Path-3" stroke="#FFFFFF" stroke-width="4" points="-4.35429816e-12 15.1386719 18.7109375 15.1386719 18.7109375 0 56.0615234 0 56.0615234 5.59082031 83.0779127 5.59082031 83.0779127 0 116.931641 0 116.931641 5.59082031 141.368164 5.59082031 141.368164 0 189.973633 0 189.973633 5.59082031 206.9375 5.59082031 206.9375 15.1386719 225.49707 15.1386719"/> </g> </g> </symbol><symbol viewBox="0 0 226 34" id="logo3"><title>Group</title><desc>Created with Sketch.</desc> <!-- Generator: Sketch 63.1 (92452) - https://sketch.com -->   <g id="logo3-Symbols" stroke="none" stroke-width="1" fill="none" fill-rule="evenodd"> <g id="logo3-1.2-logo" transform="translate(-59.000000, -7.000000)"> <g id="logo3-Group" transform="translate(59.487305, 9.861328)"> <path d="M33.1489893,26.4186719 C37.0129893,26.4186719 40.1769893,24.7666719 40.1769893,21.0426719 C40.1769893,18.4106719 38.7489893,16.7586719 35.6129893,15.7786719 L33.0089893,14.9946719 C32.1129893,14.7146719 31.5809893,14.4066719 31.5809893,13.6226719 C31.5809893,12.7546719 32.5609893,12.3906719 33.8489893,12.3906719 C35.8089893,12.3906719 37.5169893,13.0346719 39.0569893,14.0986719 L39.0569893,9.95467188 C37.6289893,9.17067188 35.9769893,8.66667188 33.6529893,8.66667188 C30.0409893,8.66667188 27.1569893,10.5426719 27.1569893,13.9586719 C27.1569893,16.8146719 28.7529893,18.2426719 31.6369893,19.0826719 L34.2409893,19.8386719 C35.1649893,20.1746719 35.6969893,20.4546719 35.6969893,21.2946719 C35.6969893,22.3586719 34.4649893,22.6666719 33.0369893,22.6666719 C31.1049893,22.6666719 29.0049893,21.8826719 27.5209893,20.8746719 L27.5209893,25.0186719 C28.7809893,25.7746719 30.8529893,26.4186719 33.1489893,26.4186719 Z M47.7859893,26.1386719 L47.7859893,16.9546719 L50.2499893,16.9546719 L50.2499893,13.5386719 L47.7859893,13.5386719 L47.7859893,10.0666719 L43.4179893,10.0666719 L43.4179893,13.5386719 L41.2339893,13.5386719 L41.2339893,16.9546719 L43.4179893,16.9546719 L43.4179893,26.1386719 L47.7859893,26.1386719 Z M56.3749893,26.1386719 L56.3749893,18.7466719 C56.5989893,17.8506719 57.4109893,17.3186719 58.6149893,17.3186719 C59.3149893,17.3186719 59.9029893,17.4306719 60.4349893,17.7106719 L60.4349893,13.4826719 C60.2389893,13.3706719 59.7909893,13.2586719 59.2309893,13.2586719 C57.9709893,13.2586719 56.9909893,13.8186719 56.3749893,14.6586719 L56.3749893,13.5386719 L51.9789893,13.5386719 L51.9789893,26.1386719 L56.3749893,26.1386719 Z M68.2399893,26.4186719 C70.0599893,26.4186719 71.5999893,26.0266719 72.5799893,25.2986719 L72.5799893,21.9666719 C71.3199893,22.7226719 70.2839893,22.9746719 68.9399893,22.9746719 C67.3159893,22.9746719 66.0839893,22.3586719 65.7199893,20.8466719 L73.4759893,20.8466719 L73.4759893,19.5586719 C73.4759893,15.8066719 71.4879893,13.2586719 67.5679893,13.2586719 C64.0959893,13.2586719 61.4639893,15.9746719 61.4639893,19.9226719 C61.4639893,23.9826719 64.2079893,26.4186719 68.2399893,26.4186719 Z M69.5559893,18.3826719 L65.7759893,18.3826719 C66.0839893,17.2346719 66.7839893,16.5906719 67.7359893,16.5906719 C68.7999893,16.5906719 69.4439893,17.3186719 69.5559893,18.3826719 Z M81.5609893,26.4186719 C83.3809893,26.4186719 84.9209893,26.0266719 85.9009893,25.2986719 L85.9009893,21.9666719 C84.6409893,22.7226719 83.6049893,22.9746719 82.2609893,22.9746719 C80.6369893,22.9746719 79.4049893,22.3586719 79.0409893,20.8466719 L86.7969893,20.8466719 L86.7969893,19.5586719 C86.7969893,15.8066719 84.8089893,13.2586719 80.8889893,13.2586719 C77.4169893,13.2586719 74.7849893,15.9746719 74.7849893,19.9226719 C74.7849893,23.9826719 77.5289893,26.4186719 81.5609893,26.4186719 Z M82.8769893,18.3826719 L79.0969893,18.3826719 C79.4049893,17.2346719 80.1049893,16.5906719 81.0569893,16.5906719 C82.1209893,16.5906719 82.7649893,17.3186719 82.8769893,18.3826719 Z M94.4339893,26.1386719 L94.4339893,16.9546719 L96.8979893,16.9546719 L96.8979893,13.5386719 L94.4339893,13.5386719 L94.4339893,10.0666719 L90.0659893,10.0666719 L90.0659893,13.5386719 L87.8819893,13.5386719 L87.8819893,16.9546719 L90.0659893,16.9546719 L90.0659893,26.1386719 L94.4339893,26.1386719 Z M103.190989,26.1386719 L103.190989,20.0626719 L110.218989,20.0626719 L110.218989,16.2546719 L103.190989,16.2546719 L103.190989,12.8386719 L110.834989,12.8386719 L110.834989,8.94667188 L98.7389893,8.94667188 L98.7389893,26.1386719 L103.190989,26.1386719 Z M118.275989,26.4186719 C122.111989,26.4186719 124.715989,23.7306719 124.715989,19.8386719 C124.715989,15.9466719 122.111989,13.2586719 118.275989,13.2586719 C114.467989,13.2586719 111.835989,15.9466719 111.835989,19.8386719 C111.835989,23.7306719 114.467989,26.4186719 118.275989,26.4186719 Z M118.275989,22.7786719 C116.931989,22.7786719 116.175989,21.5746719 116.175989,19.8386719 C116.175989,18.1026719 116.931989,16.8706719 118.275989,16.8706719 C119.647989,16.8706719 120.403989,18.1026719 120.403989,19.8386719 C120.403989,21.5746719 119.647989,22.7786719 118.275989,22.7786719 Z M132.464989,26.4186719 C136.300989,26.4186719 138.904989,23.7306719 138.904989,19.8386719 C138.904989,15.9466719 136.300989,13.2586719 132.464989,13.2586719 C128.656989,13.2586719 126.024989,15.9466719 126.024989,19.8386719 C126.024989,23.7306719 128.656989,26.4186719 132.464989,26.4186719 Z M132.464989,22.7786719 C131.120989,22.7786719 130.364989,21.5746719 130.364989,19.8386719 C130.364989,18.1026719 131.120989,16.8706719 132.464989,16.8706719 C133.836989,16.8706719 134.592989,18.1026719 134.592989,19.8386719 C134.592989,21.5746719 133.836989,22.7786719 132.464989,22.7786719 Z M145.841989,26.4186719 C147.129989,26.4186719 148.361989,25.8026719 148.949989,25.1306719 L148.949989,26.1386719 L153.345989,26.1386719 L153.345989,7.93867188 L148.949989,7.93867188 L148.949989,14.5466719 C148.361989,13.8746719 147.129989,13.2586719 145.841989,13.2586719 C142.201989,13.2586719 140.213989,16.1986719 140.213989,19.8386719 C140.213989,23.4786719 142.201989,26.4186719 145.841989,26.4186719 Z M147.017989,22.6666719 C145.505989,22.6666719 144.609989,21.4626719 144.609989,19.8386719 C144.609989,18.2146719 145.505989,16.9826719 147.017989,16.9826719 C147.857989,16.9826719 148.613989,17.4866719 148.949989,18.1586719 L148.949989,21.4906719 C148.613989,22.1906719 147.885989,22.6666719 147.017989,22.6666719 Z M164.062989,26.4186719 C165.882989,26.4186719 167.338989,25.9706719 168.430989,25.2426719 L168.430989,20.8746719 C167.198989,21.8266719 165.854989,22.2466719 164.426989,22.2466719 C161.570989,22.2466719 159.750989,20.4826719 159.750989,17.5426719 C159.750989,14.5746719 161.570989,12.8106719 164.426989,12.8106719 C165.854989,12.8106719 167.198989,13.2586719 168.430989,14.2106719 L168.430989,9.84267188 C167.338989,9.11467188 165.882989,8.66667188 164.062989,8.66667188 C158.826989,8.66667188 155.242989,12.1946719 155.242989,17.5426719 C155.242989,22.8906719 158.826989,26.4186719 164.062989,26.4186719 Z M172.931989,12.4746719 C174.275989,12.4746719 175.423989,11.5506719 175.423989,10.1226719 C175.423989,8.66667188 174.275989,7.74267188 172.931989,7.74267188 C171.587989,7.74267188 170.439989,8.66667188 170.439989,10.1226719 C170.439989,11.5506719 171.587989,12.4746719 172.931989,12.4746719 Z M175.115989,26.1386719 L175.115989,13.5386719 L170.719989,13.5386719 L170.719989,26.1386719 L175.115989,26.1386719 Z M183.424989,26.1386719 L183.424989,16.9546719 L185.888989,16.9546719 L185.888989,13.5386719 L183.424989,13.5386719 L183.424989,10.0666719 L179.056989,10.0666719 L179.056989,13.5386719 L176.872989,13.5386719 L176.872989,16.9546719 L179.056989,16.9546719 L179.056989,26.1386719 L183.424989,26.1386719 Z M193.833989,30.5906719 L200.329989,13.5386719 L195.961989,13.5386719 L193.609989,20.7066719 L191.201989,13.5386719 L186.637989,13.5386719 L191.341989,25.8306719 L189.493989,30.5906719 L193.833989,30.5906719 Z" id="logo3-StreetFoodCity" fill="#000000" fill-rule="nonzero"/> <polyline id="logo3-Path-3" stroke="#1A1A1A" stroke-width="4" points="-4.35429816e-12 15.1386719 18.7109375 15.1386719 18.7109375 0 56.0615234 0 56.0615234 5.59082031 83.0779127 5.59082031 83.0779127 0 116.931641 0 116.931641 5.59082031 141.368164 5.59082031 141.368164 0 189.973633 0 189.973633 5.59082031 206.9375 5.59082031 206.9375 15.1386719 225.49707 15.1386719"/> </g> </g> </g> </symbol><symbol viewBox="0 0 24 24" id="share-facebook"><title>share-facebook</title> <path d="M12,0C5.373,0,0,5.373,0,12c0,6.016,4.432,10.984,10.206,11.852V15.18H7.237v-3.154h2.969V9.927c0-3.475,1.693-5,4.581-5 c1.383,0,2.115,0.103,2.461,0.149v2.753h-1.97c-1.226,0-1.654,1.163-1.654,2.473v1.724h3.593L16.73,15.18h-3.106v8.697 C19.481,23.083,24,18.075,24,12C24,5.373,18.627,0,12,0z"/></symbol><symbol viewBox="0 0 30 30" id="share-instagram"><title>share-instagram</title> <path d="M 9.9980469 3 C 6.1390469 3 3 6.1419531 3 10.001953 L 3 20.001953 C 3 23.860953 6.1419531 27 10.001953 27 L 20.001953 27 C 23.860953 27 27 23.858047 27 19.998047 L 27 9.9980469 C 27 6.1390469 23.858047 3 19.998047 3 L 9.9980469 3 z M 22 7 C 22.552 7 23 7.448 23 8 C 23 8.552 22.552 9 22 9 C 21.448 9 21 8.552 21 8 C 21 7.448 21.448 7 22 7 z M 15 9 C 18.309 9 21 11.691 21 15 C 21 18.309 18.309 21 15 21 C 11.691 21 9 18.309 9 15 C 9 11.691 11.691 9 15 9 z M 15 11 A 4 4 0 0 0 11 15 A 4 4 0 0 0 15 19 A 4 4 0 0 0 19 15 A 4 4 0 0 0 15 11 z"/></symbol><symbol viewBox="0 0 24 24" id="share-twitter"><title>share-twitter</title><path d="M 24 4.300781 C 23.101563 4.699219 22.199219 5 21.199219 5.101563 C 22.199219 4.5 23 3.5 23.398438 2.398438 C 22.398438 3 21.398438 3.398438 20.300781 3.601563 C 19.300781 2.601563 18 2 16.601563 2 C 13.898438 2 11.699219 4.199219 11.699219 6.898438 C 11.699219 7.300781 11.699219 7.699219 11.800781 8 C 7.699219 7.800781 4.101563 5.898438 1.699219 2.898438 C 1.199219 3.601563 1 4.5 1 5.398438 C 1 7.101563 1.898438 8.601563 3.199219 9.5 C 2.398438 9.398438 1.601563 9.199219 1 8.898438 C 1 8.898438 1 8.898438 1 9 C 1 11.398438 2.699219 13.398438 4.898438 13.800781 C 4.5 13.898438 4.101563 14 3.601563 14 C 3.300781 14 3 14 2.699219 13.898438 C 3.300781 15.898438 5.101563 17.300781 7.300781 17.300781 C 5.601563 18.601563 3.5 19.398438 1.199219 19.398438 C 0.800781 19.398438 0.398438 19.398438 0 19.300781 C 2.199219 20.699219 4.800781 21.5 7.5 21.5 C 16.601563 21.5 21.5 14 21.5 7.5 C 21.5 7.300781 21.5 7.101563 21.5 6.898438 C 22.5 6.199219 23.300781 5.300781 24 4.300781"/></symbol></svg>