<svg xmlns="http://www.w3.org/2000/svg"><symbol viewBox="0 0 24 24" id="share-facebook"><title>share-facebook</title> <path d="M12,0C5.373,0,0,5.373,0,12c0,6.016,4.432,10.984,10.206,11.852V15.18H7.237v-3.154h2.969V9.927c0-3.475,1.693-5,4.581-5 c1.383,0,2.115,0.103,2.461,0.149v2.753h-1.97c-1.226,0-1.654,1.163-1.654,2.473v1.724h3.593L16.73,15.18h-3.106v8.697 C19.481,23.083,24,18.075,24,12C24,5.373,18.627,0,12,0z"/></symbol><symbol viewBox="0 0 30 30" id="share-instagram"><title>share-instagram</title> <path d="M 9.9980469 3 C 6.1390469 3 3 6.1419531 3 10.001953 L 3 20.001953 C 3 23.860953 6.1419531 27 10.001953 27 L 20.001953 27 C 23.860953 27 27 23.858047 27 19.998047 L 27 9.9980469 C 27 6.1390469 23.858047 3 19.998047 3 L 9.9980469 3 z M 22 7 C 22.552 7 23 7.448 23 8 C 23 8.552 22.552 9 22 9 C 21.448 9 21 8.552 21 8 C 21 7.448 21.448 7 22 7 z M 15 9 C 18.309 9 21 11.691 21 15 C 21 18.309 18.309 21 15 21 C 11.691 21 9 18.309 9 15 C 9 11.691 11.691 9 15 9 z M 15 11 A 4 4 0 0 0 11 15 A 4 4 0 0 0 15 19 A 4 4 0 0 0 19 15 A 4 4 0 0 0 15 11 z"/></symbol><symbol viewBox="0 0 24 24" id="share-twitter"><title>share-twitter</title><path d="M 24 4.300781 C 23.101563 4.699219 22.199219 5 21.199219 5.101563 C 22.199219 4.5 23 3.5 23.398438 2.398438 C 22.398438 3 21.398438 3.398438 20.300781 3.601563 C 19.300781 2.601563 18 2 16.601563 2 C 13.898438 2 11.699219 4.199219 11.699219 6.898438 C 11.699219 7.300781 11.699219 7.699219 11.800781 8 C 7.699219 7.800781 4.101563 5.898438 1.699219 2.898438 C 1.199219 3.601563 1 4.5 1 5.398438 C 1 7.101563 1.898438 8.601563 3.199219 9.5 C 2.398438 9.398438 1.601563 9.199219 1 8.898438 C 1 8.898438 1 8.898438 1 9 C 1 11.398438 2.699219 13.398438 4.898438 13.800781 C 4.5 13.898438 4.101563 14 3.601563 14 C 3.300781 14 3 14 2.699219 13.898438 C 3.300781 15.898438 5.101563 17.300781 7.300781 17.300781 C 5.601563 18.601563 3.5 19.398438 1.199219 19.398438 C 0.800781 19.398438 0.398438 19.398438 0 19.300781 C 2.199219 20.699219 4.800781 21.5 7.5 21.5 C 16.601563 21.5 21.5 14 21.5 7.5 C 21.5 7.300781 21.5 7.101563 21.5 6.898438 C 22.5 6.199219 23.300781 5.300781 24 4.300781"/></symbol></svg>